<svg width="28" height="29" viewBox="0 0 28 29" fill="none" xmlns="http://www.w3.org/2000/svg">
<path d="M21.874 12.3278V11.5058C21.874 6.99227 18.3487 3.33333 14 3.33333C9.65132 3.33333 6.12602 6.99227 6.12602 11.5058V12.3278C6.12602 13.3144 5.84467 14.2788 5.31743 15.0996L4.02542 17.1111C2.84529 18.9484 3.74622 21.4457 5.79876 22.0267C11.1682 23.5466 16.8318 23.5466 22.2012 22.0267C24.2538 21.4457 25.1547 18.9484 23.9746 17.1111L22.6826 15.0996C22.1553 14.2788 21.874 13.3144 21.874 12.3278Z" stroke="#030303"/>
<path d="M8.75 23.1667C9.5142 25.2058 11.5762 26.6667 14 26.6667C16.4238 26.6667 18.4858 25.2058 19.25 23.1667" stroke="#030303" stroke-linecap="round"/>
<circle cx="20" cy="4" r="4" fill="#FF5E61"/>
</svg>
