<?xml version="1.0" encoding="UTF-8"?>
<svg version="1.1" xmlns="http://www.w3.org/2000/svg" width="170" height="194">
<path d="M0 0 C56.1 0 112.2 0 170 0 C170 64.02 170 128.04 170 194 C113.9 194 57.8 194 0 194 C0 129.98 0 65.96 0 0 Z " fill="#FBFBFB" transform="translate(0,0)"/>
<path d="M0 0 C2.4614633 2.15891621 4.75242315 4.38953418 7.01171875 6.7578125 C7.65496094 7.39332031 8.29820312 8.02882813 8.9609375 8.68359375 C20.11736343 20.37243046 23.55824915 35.12456644 23.50170898 50.77929688 C23.25751893 59.18481146 21.42979733 66.02809673 18.01171875 73.7578125 C17.24988281 75.52705078 17.24988281 75.52705078 16.47265625 77.33203125 C12.40238625 86.09950857 7.2169726 93.42845131 1.01171875 100.7578125 C0.57311523 101.28149414 0.13451172 101.80517578 -0.31738281 102.34472656 C-9.22529691 112.868707 -21.15457681 125.08089464 -35.4140625 127.1015625 C-46.62901264 127.70859634 -55.52910188 123.03167104 -63.78173828 115.84008789 C-66.26926133 113.55606038 -68.6302727 111.17636906 -70.98828125 108.7578125 C-72.17357422 107.56865234 -72.17357422 107.56865234 -73.3828125 106.35546875 C-83.46621241 95.74229301 -91.04107304 83.07198685 -96.98828125 69.7578125 C-97.42269531 68.85546875 -97.85710937 67.953125 -98.3046875 67.0234375 C-103.23483169 55.13612118 -102.9714401 39.14478906 -98.92578125 27.0078125 C-95.06089544 17.98248761 -89.88464617 8.86239013 -81.98828125 2.7578125 C-81.32828125 2.7578125 -80.66828125 2.7578125 -79.98828125 2.7578125 C-79.98828125 2.0978125 -79.98828125 1.4378125 -79.98828125 0.7578125 C-72.61154241 -4.66039632 -64.77164206 -8.67078757 -55.98828125 -11.2421875 C-55.26511719 -11.46648438 -54.54195312 -11.69078125 -53.796875 -11.921875 C-35.28424328 -16.89948869 -15.05356865 -11.29509596 0 0 Z " fill="#F6F6F6" transform="translate(130.98828125,27.2421875)"/>
<path d="M0 0 C2.4614633 2.15891621 4.75242315 4.38953418 7.01171875 6.7578125 C7.65496094 7.39332031 8.29820312 8.02882813 8.9609375 8.68359375 C20.11736343 20.37243046 23.55824915 35.12456644 23.50170898 50.77929688 C23.25751893 59.18481146 21.42979733 66.02809673 18.01171875 73.7578125 C17.24988281 75.52705078 17.24988281 75.52705078 16.47265625 77.33203125 C12.40238625 86.09950857 7.2169726 93.42845131 1.01171875 100.7578125 C0.57311523 101.28149414 0.13451172 101.80517578 -0.31738281 102.34472656 C-9.22529691 112.868707 -21.15457681 125.08089464 -35.4140625 127.1015625 C-46.62901264 127.70859634 -55.52910188 123.03167104 -63.78173828 115.84008789 C-66.26926133 113.55606038 -68.6302727 111.17636906 -70.98828125 108.7578125 C-72.17357422 107.56865234 -72.17357422 107.56865234 -73.3828125 106.35546875 C-83.46621241 95.74229301 -91.04107304 83.07198685 -96.98828125 69.7578125 C-97.42269531 68.85546875 -97.85710937 67.953125 -98.3046875 67.0234375 C-103.23483169 55.13612118 -102.9714401 39.14478906 -98.92578125 27.0078125 C-95.06089544 17.98248761 -89.88464617 8.86239013 -81.98828125 2.7578125 C-81.32828125 2.7578125 -80.66828125 2.7578125 -79.98828125 2.7578125 C-79.98828125 2.0978125 -79.98828125 1.4378125 -79.98828125 0.7578125 C-72.61154241 -4.66039632 -64.77164206 -8.67078757 -55.98828125 -11.2421875 C-55.26511719 -11.46648438 -54.54195312 -11.69078125 -53.796875 -11.921875 C-35.28424328 -16.89948869 -15.05356865 -11.29509596 0 0 Z M-62.98828125 3.7578125 C-63.9628125 4.27730469 -64.93734375 4.79679687 -65.94140625 5.33203125 C-77.87528054 12.32606414 -85.28487056 22.73320841 -89.6640625 35.76953125 C-92.74876969 54.686591 -84.8806593 71.20965599 -74.67578125 86.5078125 C-66.55233437 97.77717254 -55.76983951 111.46606999 -41.98828125 115.7578125 C-33.72018248 116.43937199 -26.91580723 112.26422502 -20.671875 107.14453125 C-5.01954155 93.54443362 10.63995678 72.94389088 12.453125 51.67578125 C13.13542188 37.27230601 8.23796372 25.62283872 -0.796875 14.5390625 C-10.60668809 3.93385916 -23.03455519 -1.11994117 -37.23071289 -1.69335938 C-46.73096454 -1.86956733 -54.47427124 -0.78682798 -62.98828125 3.7578125 Z " fill="#39393A" transform="translate(130.98828125,27.2421875)"/>
<path d="M0 0 C2.97 0 5.94 0 9 0 C9 17.16 9 34.32 9 52 C-46.77 52 -102.54 52 -160 52 C-159.505 43.09 -159.505 43.09 -159 34 C-154.05 33.505 -154.05 33.505 -149 33 C-148.67 29.7 -148.34 26.4 -148 23 C-144.37 22.67 -140.74 22.34 -137 22 C-137 18.04 -137 14.08 -137 10 C-128.25 9.875 -128.25 9.875 -126 11 C-126 18.59 -126 26.18 -126 34 C-112.4651372 34.022619 -98.93028703 34.04095448 -85.39540958 34.05181217 C-79.11019754 34.05702409 -72.82499912 34.064091 -66.53979492 34.07543945 C-60.47086389 34.08632846 -54.40194595 34.09228958 -48.33300591 34.09487724 C-46.02104931 34.09672066 -43.70909341 34.10032036 -41.39714241 34.10573006 C-38.15154615 34.1130203 -34.90600356 34.11398758 -31.66040039 34.11352539 C-30.2361953 34.1189183 -30.2361953 34.1189183 -28.78321838 34.12442017 C-23.1102388 34.11571517 -17.62791188 33.72358451 -12 33 C-11.20157041 25.62878395 -10.90370725 18.41454174 -11 11 C-6.05 10.505 -6.05 10.505 -1 10 C-0.67 6.7 -0.34 3.4 0 0 Z " fill="#FCFCFC" transform="translate(161,142)"/>
<path d="M0 0 C0.33 0 0.66 0 1 0 C1 2.97 1 5.94 1 9 C3.64 9 6.28 9 9 9 C9 9.33 9 9.66 9 10 C6.36 10 3.72 10 1 10 C1 13.3 1 16.6 1 20 C3.64 20 6.28 20 9 20 C9 20.33 9 20.66 9 21 C6.36 21 3.72 21 1 21 C1 24.63 1 28.26 1 32 C3.64 32 6.28 32 9 32 C9 32.33 9 32.66 9 33 C6.36 33 3.72 33 1 33 C1 36.3 1 39.6 1 43 C4.3 43 7.6 43 11 43 C11 39.37 11 35.74 11 32 C14.3 32 17.6 32 21 32 C21 35.96 21 39.92 21 44 C18.03 44 15.06 44 12 44 C12.01160156 44.71027344 12.02320313 45.42054688 12.03515625 46.15234375 C12.04417969 47.07144531 12.05320312 47.99054688 12.0625 48.9375 C12.07410156 49.85402344 12.08570313 50.77054688 12.09765625 51.71484375 C12 54 12 54 11 55 C7.66381769 55.14257189 4.34024394 55.04228157 1 55 C1 58.63 1 62.26 1 66 C3.64 66 6.28 66 9 66 C9 66.33 9 66.66 9 67 C6.36 67 3.72 67 1 67 C1.01160156 67.71027344 1.02320313 68.42054688 1.03515625 69.15234375 C1.04417969 70.07144531 1.05320312 70.99054688 1.0625 71.9375 C1.07410156 72.85402344 1.08570313 73.77054687 1.09765625 74.71484375 C1 77 1 77 0 78 C-6.28678204 78.87905492 -12.4460845 79.1528969 -18.78662109 79.16113281 C-19.71945923 79.16609772 -20.65229736 79.17106262 -21.61340332 79.17617798 C-24.66675577 79.19066075 -27.72005651 79.19757378 -30.7734375 79.203125 C-32.9057312 79.20888246 -35.0380249 79.21464011 -37.1703186 79.22039795 C-41.62347656 79.23086446 -46.07661666 79.23673732 -50.52978516 79.24023438 C-56.24308584 79.24574796 -61.95615168 79.26985481 -67.66937828 79.29820633 C-72.06504015 79.31678742 -76.46064448 79.32203561 -80.85634232 79.32357025 C-82.96393765 79.32660128 -85.07153186 79.3346449 -87.17908859 79.34775543 C-90.11616075 79.364741 -93.05264526 79.36295553 -95.98974609 79.35644531 C-96.86249176 79.3656601 -97.73523743 79.37487488 -98.63442993 79.3843689 C-104.53693198 79.34322118 -104.53693198 79.34322118 -106.75435829 77.69968796 C-108 76 -108 76 -107.875 72.4375 C-107 69 -107 69 -104 67 C-101.85493469 66.7215271 -101.85493469 66.7215271 -99.3449707 66.68115234 C-98.40422195 66.66128265 -97.46347321 66.64141296 -96.49421692 66.62094116 C-95.48163315 66.60938995 -94.46904938 66.59783875 -93.42578125 66.5859375 C-92.38681198 66.56657135 -91.34784271 66.5472052 -90.27738953 66.5272522 C-86.95584344 66.46742701 -83.63426276 66.42105896 -80.3125 66.375 C-78.06183376 66.33682295 -75.81118218 66.29777139 -73.56054688 66.2578125 C-68.04048345 66.16172292 -62.52035163 66.07770249 -57 66 C-57 63.03 -57 60.06 -57 57 C-57.99 56.505 -57.99 56.505 -59 56 C-58.33355469 55.92523438 -57.66710937 55.85046875 -56.98046875 55.7734375 C-38.42248873 53.12600539 -24.39323431 39.22023704 -13.515625 24.76171875 C-7.98831142 17.14526994 -2.98890555 8.96671665 0 0 Z " fill="#F1F1F1" transform="translate(149,98)"/>
<path d="M0 0 C5.28 0 10.56 0 16 0 C17.54604061 17.62486297 6.60646388 33.91698658 -4 47 C-9.4187065 53.43523904 -14.82274539 59.51932302 -22 64 C-22.79277344 64.49628906 -23.58554688 64.99257812 -24.40234375 65.50390625 C-29.20341366 68.21884101 -33.13449444 69.88854237 -38.66015625 68.8203125 C-48.64979438 65.31810214 -56.03667888 57.6562454 -63 50 C-63.59425781 49.35804687 -64.18851563 48.71609375 -64.80078125 48.0546875 C-68.62837804 43.4184435 -68.44036125 39.72469624 -68 34 C-63.05 33.505 -63.05 33.505 -58 33 C-57.67 29.7 -57.34 26.4 -57 23 C-53.08760974 22.7604659 -50.54648563 22.72675718 -47 24.5 C-40.4443509 27.57804743 -31.86751102 27.10646673 -25.05078125 25.15625 C-19.66659221 22.71563751 -16.08449981 19.4107946 -12.47265625 14.76953125 C-9.18836325 10.82315266 -5.87084672 10.55141661 -1 10 C-0.67 6.7 -0.34 3.4 0 0 Z " fill="#F9F9F9" transform="translate(127,74)"/>
<path d="M0 0 C0.66 0.33 1.32 0.66 2 1 C2 1.66 2 2.32 2 3 C2.5775 3.20625 3.155 3.4125 3.75 3.625 C7.77757069 6.0862932 9.5051242 9.78755429 11.25 14.0625 C13.31953333 22.64441805 13.00057105 31.08970093 8.54296875 38.78125 C4.04487704 45.249392 -1.19224806 50.1068722 -9 52 C-17.20315235 52.8565186 -25.26553104 53.29243035 -32 48 C-38.69993494 42.40227248 -43.4331298 37.12882566 -44.41015625 28.2890625 C-44.91671421 18.78997005 -43.65587058 11.22172265 -37.16796875 3.9453125 C-26.84214566 -5.87134772 -12.35762476 -7.18936581 0 0 Z " fill="#424243" transform="translate(108,49)"/>
<path d="M0 0 C0.93181595 -0.0049649 1.8636319 -0.00992981 2.82368469 -0.01504517 C5.91509735 -0.02968527 9.00645872 -0.03647131 12.09790039 -0.04199219 C14.24019879 -0.04774142 16.38249717 -0.05349918 18.52479553 -0.05926514 C23.01978801 -0.06977991 27.51476257 -0.07561969 32.00976562 -0.07910156 C37.77819675 -0.08459211 43.54639252 -0.10863019 49.31474972 -0.13707352 C53.74045003 -0.15566672 58.16609322 -0.16090369 62.5918293 -0.16243744 C64.71896211 -0.16547121 66.84609375 -0.17352395 68.9731884 -0.18662262 C71.94454926 -0.20361635 74.91532945 -0.20181939 77.88671875 -0.1953125 C78.77046173 -0.20452728 79.65420471 -0.21374207 80.56472778 -0.22323608 C81.37372025 -0.21766693 82.18271271 -0.21209778 83.01622009 -0.20635986 C83.71879409 -0.20782642 84.42136808 -0.20929298 85.1452322 -0.21080399 C87.59517507 0.27835854 88.48874109 1.21327399 90.00805664 3.16113281 C90.38305664 5.66113281 90.38305664 5.66113281 90.00805664 8.16113281 C88.48997276 10.10576824 87.59279012 11.04245169 85.14802551 11.53865623 C84.44675034 11.53978731 83.74547516 11.54091839 83.02294922 11.54208374 C82.21540192 11.55054321 81.40785461 11.55900269 80.57583618 11.56771851 C79.69366425 11.56164581 78.81149231 11.55557312 77.90258789 11.54931641 C76.50464493 11.55720184 76.50464493 11.55720184 75.07846069 11.56524658 C71.99232309 11.57846976 68.90669966 11.5697002 65.82055664 11.55957031 C63.67968649 11.56159038 61.53881701 11.56450125 59.39794922 11.56826782 C54.90886897 11.57269432 50.41996767 11.56624955 45.9309082 11.55224609 C40.17031104 11.53515414 34.41013316 11.54499357 28.64955139 11.56296349 C24.22811715 11.57379245 19.80678267 11.57035904 15.38534546 11.56258011 C13.26101634 11.56057565 11.13667824 11.56304595 9.01235962 11.57001877 C6.04583666 11.57761856 3.0799973 11.56604951 0.11352539 11.54931641 C-1.20973251 11.55842545 -1.20973251 11.55842545 -2.5597229 11.56771851 C-3.77104385 11.5550293 -3.77104385 11.5550293 -5.00683594 11.54208374 C-5.70811111 11.54095266 -6.40938629 11.53982159 -7.13191223 11.53865623 C-9.60918051 11.03585454 -10.51507947 10.19043405 -11.99194336 8.16113281 C-11.80444336 4.53613281 -11.80444336 4.53613281 -10.99194336 1.16113281 C-7.59861969 -0.53552902 -3.73354323 0.00471182 0 0 Z " fill="#323233" transform="translate(52.991943359375,165.8388671875)"/>
<path d="M0 0 C0 7.26 0 14.52 0 22 C-3.96 22 -7.92 22 -12 22 C-12 29.59 -12 37.18 -12 45 C-14.95810476 46.47905238 -17.9547155 46.12190903 -21.1953125 46.09765625 C-21.90275604 46.0962413 -22.61019958 46.09482635 -23.33908081 46.09336853 C-25.60109669 46.087766 -27.86301398 46.07521318 -30.125 46.0625 C-31.65755065 46.05748532 -33.19010286 46.05292236 -34.72265625 46.04882812 C-38.48180888 46.03779577 -42.24088772 46.02052952 -46 46 C-45.67 42.04 -45.34 38.08 -45 34 C-39.555 33.505 -39.555 33.505 -34 33 C-33.93554688 31.95972656 -33.87109375 30.91945312 -33.8046875 29.84765625 C-32.84506463 25.25916824 -31.41671758 23.71523011 -28.125 20.4375 C-24.87037214 17.15514595 -21.85098366 13.91904985 -19.2109375 10.11328125 C-18.52813721 9.14853882 -18.52813721 9.14853882 -17.83154297 8.16430664 C-16.96535842 6.91902739 -16.12648158 5.65414919 -15.32080078 4.36889648 C-10.82566495 -1.96239411 -9.03371918 0 0 0 Z " fill="#FBFBFB" transform="translate(149,119)"/>
<path d="M0 0 C4.35652651 2.87134702 7.7467617 5.94622643 9.75 10.8125 C10.44306569 15.69619545 10.30914129 19.67271199 8.125 24.125 C0.74259539 32.47877364 0.74259539 32.47877364 -4.38671875 33.05078125 C-10.31159543 33.22317429 -14.72586888 32.87732847 -19.25 28.8125 C-22.8169663 24.88340514 -24.57217442 21.13240888 -24.875 15.8125 C-24.57239597 10.49648327 -22.82045585 6.73548187 -19.25 2.8125 C-13.57809219 -2.16977137 -6.9243064 -2.53003503 0 0 Z " fill="#F1F1F1" transform="translate(99.25,57.1875)"/>
<path d="M0 0 C0.99 0.495 0.99 0.495 2 1 C1.34 1.66 0.68 2.32 0 3 C-0.36760731 5.32817964 -0.70241581 7.6618385 -1 10 C-2 11 -2 11 -4.50390625 11.09765625 C-7.3359375 11.06510417 -10.16796875 11.03255208 -13 11 C-13 14.63 -13 18.26 -13 22 C4.325 22.495 4.325 22.495 22 23 C22 23.33 22 23.66 22 24 C-9.02 24 -40.04 24 -72 24 C-72 23.67 -72 23.34 -72 23 C-56.49 22.67 -40.98 22.34 -25 22 C-25 19.03 -25 16.06 -25 13 C-25.66 12.67 -26.32 12.34 -27 12 C-26.00033203 11.88785156 -26.00033203 11.88785156 -24.98046875 11.7734375 C-15.36216411 10.40131572 -7.266586 6.5148702 0 0 Z " fill="#C7C7C7" transform="translate(117,142)"/>
<path d="M0 0 C0 0.33 0 0.66 0 1 C-1.65 1 -3.3 1 -5 1 C-5 4.3 -5 7.6 -5 11 C-16.385 10.505 -16.385 10.505 -28 10 C-28 7.03 -28 4.06 -28 1 C-29.98 1 -31.96 1 -34 1 C-34 0.67 -34 0.34 -34 0 C-22.63138319 -3.13617015 -11.4363662 -2.61402656 0 0 Z " fill="#434344" transform="translate(109,16)"/>
<path d="M0 0 C2.92869654 2.82410024 5.58427923 5.72152181 8 9 C8 9.66 8 10.32 8 11 C5.69 11 3.38 11 1 11 C1.01160156 11.71027344 1.02320313 12.42054688 1.03515625 13.15234375 C1.04869141 14.53099609 1.04869141 14.53099609 1.0625 15.9375 C1.07410156 16.85402344 1.08570313 17.77054688 1.09765625 18.71484375 C1 21 1 21 0 22 C-1.85287502 22.07226502 -3.70833878 22.0838122 -5.5625 22.0625 C-6.57441406 22.05347656 -7.58632813 22.04445312 -8.62890625 22.03515625 C-9.41136719 22.02355469 -10.19382813 22.01195312 -11 22 C-11 25.3 -11 28.6 -11 32 C-8.03 32 -5.06 32 -2 32 C-2 32.33 -2 32.66 -2 33 C-4.97 33 -7.94 33 -11 33 C-11 36.63 -11 40.26 -11 44 C-8.36 44 -5.72 44 -3 44 C-3 44.33 -3 44.66 -3 45 C-5.64 45 -8.28 45 -11 45 C-11 48.3 -11 51.6 -11 55 C-8.03 54.505 -8.03 54.505 -5 54 C-4.67 54.66 -4.34 55.32 -4 56 C-6.31 56 -8.62 56 -11 56 C-11 58.97 -11 61.94 -11 65 C-11.33 65 -11.66 65 -12 65 C-12 62.03 -12 59.06 -12 56 C-12.66 55.67 -13.32 55.34 -14 55 C-13.34 55 -12.68 55 -12 55 C-12 51.7 -12 48.4 -12 45 C-12.66 44.67 -13.32 44.34 -14 44 C-13.34 44 -12.68 44 -12 44 C-12 40.37 -12 36.74 -12 33 C-12.66 32.67 -13.32 32.34 -14 32 C-13.34 32 -12.68 32 -12 32 C-12 28.7 -12 25.4 -12 22 C-12.66 21.67 -13.32 21.34 -14 21 C-13.34 21 -12.68 21 -12 21 C-12 17.37 -12 13.74 -12 10 C-8.04 10 -4.08 10 0 10 C0 6.7 0 3.4 0 0 Z " fill="#EFEFEF" transform="translate(47,120)"/>
<path d="M0 0 C5.62879962 4.02057116 8.91587532 8.82081402 12 15 C12 15.66 12 16.32 12 17 C8.37 17 4.74 17 1 17 C0.67 17.66 0.34 18.32 0 19 C-0.47050781 18.32453125 -0.94101563 17.6490625 -1.42578125 16.953125 C-2.04839844 16.06109375 -2.67101562 15.1690625 -3.3125 14.25 C-3.92738281 13.36828125 -4.54226562 12.4865625 -5.17578125 11.578125 C-6.74638688 9.3584254 -8.36849989 7.17533348 -10 5 C-6.7 5 -3.4 5 0 5 C0 3.35 0 1.7 0 0 Z " fill="#414142" transform="translate(137,34)"/>
<path d="M0 0 C2.57519631 3.09023558 4.21294339 6.37553149 5.94921875 9.96875 C6.93820773 11.88055026 8.02451899 13.6082288 9.25 15.375 C11 18 11 18 11 20 C7.7 20 4.4 20 1 20 C1 23.3 1 26.6 1 30 C0.67 30 0.34 30 0 30 C0 26.7 0 23.4 0 20 C-3.3 20 -6.6 20 -10 20 C-10 23.63 -10 27.26 -10 31 C-10.33 31 -10.66 31 -11 31 C-11 27.04 -11 23.08 -11 19 C-7.37 19 -3.74 19 0 19 C0 15.7 0 12.4 0 9 C-0.66 8.67 -1.32 8.34 -2 8 C-1.34 8 -0.68 8 0 8 C0 5.36 0 2.72 0 0 Z M-13 31 C-11 32 -11 32 -11 32 Z " fill="#EEEEEE" transform="translate(35,99)"/>
<path d="M0 0 C3.63 0 7.26 0 11 0 C11 3.63 11 7.26 11 11 C7.37 11 3.74 11 0 11 C0 7.37 0 3.74 0 0 Z " fill="#FFFFFF" transform="translate(138,153)"/>
<path d="M0 0 C3.63 0 7.26 0 11 0 C11 3.63 11 7.26 11 11 C7.37 11 3.74 11 0 11 C0 7.37 0 3.74 0 0 Z " fill="#FFFFFF" transform="translate(138,17)"/>
<path d="M0 0 C1.258125 -0.020625 2.51625 -0.04125 3.8125 -0.0625 C4.52019531 -0.07410156 5.22789063 -0.08570312 5.95703125 -0.09765625 C8 0 8 0 11 1 C11 4.3 11 7.6 11 11 C2.25 11.125 2.25 11.125 0 10 C0 6.7 0 3.4 0 0 Z " fill="#202021" transform="translate(104,17)"/>
<path d="M0 0 C0 3.3 0 6.6 0 10 C-3.8726592 10.9681648 -7.03611362 11.07622858 -11 11 C-11 7.7 -11 4.4 -11 1 C-7.57067929 -0.71466036 -3.78283935 -0.05404056 0 0 Z " fill="#1F1F20" transform="translate(81,17)"/>
<path d="M0 0 C0.33 0.66 0.66 1.32 1 2 C4.63 2 8.26 2 12 2 C11.67 2.66 11.34 3.32 11 4 C7.7 3.67 4.4 3.34 1 3 C1.020625 4.588125 1.04125 6.17625 1.0625 7.8125 C1.07000095 13.58823193 0.62158584 19.26143069 0 25 C-1.65 25 -3.3 25 -5 25 C-5.86477331 15.58357954 -3.51375291 8.59614552 0 0 Z " fill="#474748" transform="translate(35,48)"/>
<path d="M0 0 C3.3 0 6.6 0 10 0 C10 3.63 10 7.26 10 11 C6.7 11 3.4 11 0 11 C0 7.37 0 3.74 0 0 Z " fill="#FFFFFF" transform="translate(59,153)"/>
<path d="M0 0 C3.63 0 7.26 0 11 0 C11 3.3 11 6.6 11 10 C7.37 10 3.74 10 0 10 C0 6.7 0 3.4 0 0 Z " fill="#FFFFFF" transform="translate(138,142)"/>
<path d="M0 0 C3.63 0 7.26 0 11 0 C11 3.3 11 6.6 11 10 C7.37 10 3.74 10 0 10 C0 6.7 0 3.4 0 0 Z " fill="#FFFFFF" transform="translate(138,131)"/>
<path d="M0 0 C3.63 0 7.26 0 11 0 C11 3.3 11 6.6 11 10 C7.37 10 3.74 10 0 10 C0 6.7 0 3.4 0 0 Z " fill="#FFFFFF" transform="translate(36,131)"/>
<path d="M0 0 C3.3 0 6.6 0 10 0 C10 3.63 10 7.26 10 11 C6.7 11 3.4 11 0 11 C0 7.37 0 3.74 0 0 Z " fill="#FFFFFF" transform="translate(82,119)"/>
<path d="M0 0 C3.63 0 7.26 0 11 0 C11 3.3 11 6.6 11 10 C7.37 10 3.74 10 0 10 C0 6.7 0 3.4 0 0 Z " fill="#FFFFFF" transform="translate(13,40)"/>
<path d="M0 0 C3.63 0 7.26 0 11 0 C11 3.3 11 6.6 11 10 C7.37 10 3.74 10 0 10 C0 6.7 0 3.4 0 0 Z " fill="#FFFFFF" transform="translate(138,6)"/>
<path d="M0 0 C4.01686987 -0.46707789 5.56501812 -0.32150834 8.875 2.125 C11.32150834 5.43498188 11.46707789 6.98313013 11 11 C9.35425434 11.02688151 7.70838587 11.04634123 6.0625 11.0625 C5.14597656 11.07410156 4.22945313 11.08570313 3.28515625 11.09765625 C1 11 1 11 0 10 C-0.07205511 8.31391034 -0.08386068 6.62499341 -0.0625 4.9375 C-0.05347656 4.01839844 -0.04445313 3.09929688 -0.03515625 2.15234375 C-0.02355469 1.44207031 -0.01195313 0.73179688 0 0 Z " fill="#202021" transform="translate(104,51)"/>
<path d="M0 0 C3.63 0 7.26 0 11 0 C11 3.63 11 7.26 11 11 C8.36 11 5.72 11 3 11 C0 4.5 0 4.5 0 0 Z " fill="#1F1F20" transform="translate(138,51)"/>
<path d="M0 0 C1.64574566 -0.02688151 3.29161413 -0.04634123 4.9375 -0.0625 C5.85402344 -0.07410156 6.77054687 -0.08570312 7.71484375 -0.09765625 C10 0 10 0 11 1 C11.07205511 2.68608966 11.08386068 4.37500659 11.0625 6.0625 C11.05347656 6.98160156 11.04445313 7.90070313 11.03515625 8.84765625 C11.02355469 9.55792969 11.01195313 10.26820312 11 11 C6.98313013 11.46707789 5.43498188 11.32150834 2.125 8.875 C-0.32150834 5.56501812 -0.46707789 4.01686987 0 0 Z " fill="#1E1E1F" transform="translate(70,85)"/>
<path d="M0 0 C3.3 0 6.6 0 10 0 C10 3.63 10 7.26 10 11 C7.36 11 4.72 11 2 11 C-0.32590854 7.36576791 -0.16265833 4.22911669 0 0 Z " fill="#FEFEFE" transform="translate(116,51)"/>
<path d="M0 0 C0 3.63 0 7.26 0 11 C-3.3 11 -6.6 11 -10 11 C-10 8.03 -10 5.06 -10 2 C-6.19956554 0.26265853 -4.40285423 0 0 0 Z " fill="#FEFEFE" transform="translate(103,153)"/>
<path d="M0 0 C6.40096618 -0.48309179 6.40096618 -0.48309179 8.9375 1.5625 C10.34907805 4.80082611 10.20145347 7.50813979 10 11 C6.7 11 3.4 11 0 11 C0 7.37 0 3.74 0 0 Z " fill="#FDFDFD" transform="translate(59,85)"/>
<path d="M0 0 C0.05399736 1.45792884 0.09279177 2.91642712 0.125 4.375 C0.14820312 5.18710937 0.17140625 5.99921875 0.1953125 6.8359375 C0 9 0 9 -2 11 C-4.1640625 11.1953125 -4.1640625 11.1953125 -6.625 11.125 C-7.44226563 11.10695313 -8.25953125 11.08890625 -9.1015625 11.0703125 C-9.72804688 11.04710937 -10.35453125 11.02390625 -11 11 C-11.46707789 6.98313013 -11.32150834 5.43498188 -8.875 2.125 C-5.56501812 -0.32150834 -4.01686987 -0.46707789 0 0 Z " fill="#1E1E1F" transform="translate(81,51)"/>
<path d="M0 0 C7.75 0.875 7.75 0.875 10 2 C10 4.97 10 7.94 10 11 C6.7 11 3.4 11 0 11 C0 7.37 0 3.74 0 0 Z " fill="#FEFEFE" transform="translate(82,153)"/>
<path d="M0 0 C3.3 0 6.6 0 10 0 C10 3.3 10 6.6 10 10 C6.7 10 3.4 10 0 10 C0 6.7 0 3.4 0 0 Z " fill="#FFFFFF" transform="translate(25,165)"/>
<path d="M0 0 C3.3 0 6.6 0 10 0 C10 3.3 10 6.6 10 10 C6.7 10 3.4 10 0 10 C0 6.7 0 3.4 0 0 Z " fill="#FFFFFF" transform="translate(2,165)"/>
<path d="M0 0 C3.3 0 6.6 0 10 0 C10 3.3 10 6.6 10 10 C6.7 10 3.4 10 0 10 C0 6.7 0 3.4 0 0 Z " fill="#FFFFFF" transform="translate(150,142)"/>
<path d="M0 0 C3.3 0 6.6 0 10 0 C10 3.3 10 6.6 10 10 C6.7 10 3.4 10 0 10 C0 6.7 0 3.4 0 0 Z " fill="#FFFFFF" transform="translate(127,142)"/>
<path d="M0 0 C3.3 0 6.6 0 10 0 C10 3.3 10 6.6 10 10 C6.7 10 3.4 10 0 10 C0 6.7 0 3.4 0 0 Z " fill="#FFFFFF" transform="translate(2,142)"/>
<path d="M0 0 C3.3 0 6.6 0 10 0 C10 3.3 10 6.6 10 10 C6.7 10 3.4 10 0 10 C0 6.7 0 3.4 0 0 Z " fill="#FFFFFF" transform="translate(25,131)"/>
<path d="M0 0 C3.3 0 6.6 0 10 0 C10 3.3 10 6.6 10 10 C6.7 10 3.4 10 0 10 C0 6.7 0 3.4 0 0 Z " fill="#FFFFFF" transform="translate(93,108)"/>
<path d="M0 0 C3.3 0 6.6 0 10 0 C10 3.3 10 6.6 10 10 C6.7 10 3.4 10 0 10 C0 6.7 0 3.4 0 0 Z " fill="#FFFFFF" transform="translate(82,108)"/>
<path d="M0 0 C3.3 0 6.6 0 10 0 C10 3.3 10 6.6 10 10 C6.7 10 3.4 10 0 10 C0 6.7 0 3.4 0 0 Z " fill="#FFFFFF" transform="translate(25,108)"/>
<path d="M0 0 C3.3 0 6.6 0 10 0 C10 3.3 10 6.6 10 10 C6.7 10 3.4 10 0 10 C0 6.7 0 3.4 0 0 Z " fill="#FFFFFF" transform="translate(2,108)"/>
<path d="M0 0 C3.3 0 6.6 0 10 0 C10 3.3 10 6.6 10 10 C6.7 10 3.4 10 0 10 C0 6.7 0 3.4 0 0 Z " fill="#FFFFFF" transform="translate(116,97)"/>
<path d="M0 0 C3.3 0 6.6 0 10 0 C10 3.3 10 6.6 10 10 C6.7 10 3.4 10 0 10 C0 6.7 0 3.4 0 0 Z " fill="#FFFFFF" transform="translate(59,97)"/>
<path d="M0 0 C3.3 0 6.6 0 10 0 C10 3.3 10 6.6 10 10 C6.7 10 3.4 10 0 10 C0 6.7 0 3.4 0 0 Z " fill="#FEFEFE" transform="translate(25,97)"/>
<path d="M0 0 C3.3 0 6.6 0 10 0 C10 3.3 10 6.6 10 10 C6.7 10 3.4 10 0 10 C0 6.7 0 3.4 0 0 Z " fill="#FFFFFF" transform="translate(2,97)"/>
<path d="M0 0 C3.63 0 7.26 0 11 0 C11 5 11 5 9.86328125 6.80078125 C9.35152344 7.29964844 8.83976562 7.79851562 8.3125 8.3125 C7.81363281 8.82425781 7.31476563 9.33601563 6.80078125 9.86328125 C5 11 5 11 0 11 C0 7.37 0 3.74 0 0 Z " fill="#1E1E1F" transform="translate(104,85)"/>
<path d="M0 0 C3.3 0 6.6 0 10 0 C10 3.3 10 6.6 10 10 C6.7 10 3.4 10 0 10 C0 6.7 0 3.4 0 0 Z " fill="#FFFFFF" transform="translate(127,74)"/>
<path d="M0 0 C3.3 0 6.6 0 10 0 C10 3.3 10 6.6 10 10 C6.7 10 3.4 10 0 10 C0 6.7 0 3.4 0 0 Z " fill="#FFFFFF" transform="translate(93,74)"/>
<path d="M0 0 C3.3 0 6.6 0 10 0 C10 3.3 10 6.6 10 10 C6.7 10 3.4 10 0 10 C0 6.7 0 3.4 0 0 Z " fill="#FFFFFF" transform="translate(82,74)"/>
<path d="M0 0 C3.3 0 6.6 0 10 0 C10 3.3 10 6.6 10 10 C6.7 10 3.4 10 0 10 C0 6.7 0 3.4 0 0 Z " fill="#FFFFFF" transform="translate(48,74)"/>
<path d="M0 0 C3.3 0 6.6 0 10 0 C10 3.3 10 6.6 10 10 C6.7 10 3.4 10 0 10 C0 6.7 0 3.4 0 0 Z " fill="#FFFFFF" transform="translate(2,74)"/>
<path d="M0 0 C3.3 0 6.6 0 10 0 C10 3.3 10 6.6 10 10 C6.7 10 3.4 10 0 10 C0 6.7 0 3.4 0 0 Z " fill="#FFFFFF" transform="translate(127,63)"/>
<path d="M0 0 C3.3 0 6.6 0 10 0 C10 3.3 10 6.6 10 10 C6.7 10 3.4 10 0 10 C0 6.7 0 3.4 0 0 Z " fill="#FFFFFF" transform="translate(93,63)"/>
<path d="M0 0 C3.3 0 6.6 0 10 0 C10 3.3 10 6.6 10 10 C6.7 10 3.4 10 0 10 C0 6.7 0 3.4 0 0 Z " fill="#FFFFFF" transform="translate(82,63)"/>
<path d="M0 0 C3.3 0 6.6 0 10 0 C10 3.3 10 6.6 10 10 C6.7 10 3.4 10 0 10 C0 6.7 0 3.4 0 0 Z " fill="#FFFFFF" transform="translate(48,63)"/>
<path d="M0 0 C3.3 0 6.6 0 10 0 C10 3.3 10 6.6 10 10 C6.7 10 3.4 10 0 10 C0 6.7 0 3.4 0 0 Z " fill="#FFFFFF" transform="translate(116,40)"/>
<path d="M0 0 C3.3 0 6.6 0 10 0 C10 3.3 10 6.6 10 10 C6.7 10 3.4 10 0 10 C0 6.7 0 3.4 0 0 Z " fill="#FFFFFF" transform="translate(59,40)"/>
<path d="M0 0 C3.3 0 6.6 0 10 0 C10 3.3 10 6.6 10 10 C6.7 10 3.4 10 0 10 C0 6.7 0 3.4 0 0 Z " fill="#FEFEFE" transform="translate(25,40)"/>
<path d="M0 0 C3.63 0 7.26 0 11 0 C11 3.3 11 6.6 11 10 C4.72413793 10.48275862 4.72413793 10.48275862 1.5625 8.375 C-0.39644605 5.397402 -0.31785906 3.49644963 0 0 Z " fill="#FDFDFD" transform="translate(138,29)"/>
<path d="M0 0 C3.3 0 6.6 0 10 0 C10 3.3 10 6.6 10 10 C6.7 10 3.4 10 0 10 C0 6.7 0 3.4 0 0 Z " fill="#FFFFFF" transform="translate(93,29)"/>
<path d="M0 0 C3.3 0 6.6 0 10 0 C10 3.3 10 6.6 10 10 C6.7 10 3.4 10 0 10 C0 6.7 0 3.4 0 0 Z " fill="#FFFFFF" transform="translate(82,29)"/>
<path d="M0 0 C3.3 0 6.6 0 10 0 C10 3.3 10 6.6 10 10 C6.7 10 3.4 10 0 10 C0 6.7 0 3.4 0 0 Z " fill="#FFFFFF" transform="translate(150,6)"/>
<path d="M0 0 C3.3 0 6.6 0 10 0 C10 3.3 10 6.6 10 10 C6.7 10 3.4 10 0 10 C0 6.7 0 3.4 0 0 Z " fill="#FFFFFF" transform="translate(48,6)"/>
<path d="M0 0 C3.3 0 6.6 0 10 0 C10 3.3 10 6.6 10 10 C6.7 10 3.4 10 0 10 C0 6.7 0 3.4 0 0 Z " fill="#FFFFFF" transform="translate(2,6)"/>
<path d="M0 0 C3.63 0 7.26 0 11 0 C11 2.97 11 5.94 11 9 C7.37 9 3.74 9 0 9 C0 6.03 0 3.06 0 0 Z " fill="#1E1E1F" transform="translate(104,166)"/>
<path d="M0 0 C3.63 0 7.26 0 11 0 C11 2.97 11 5.94 11 9 C7.37 9 3.74 9 0 9 C0 6.03 0 3.06 0 0 Z " fill="#1E1E1F" transform="translate(70,166)"/>
<path d="M0 0 C3.3 0 6.6 0 10 0 C10.09765625 6.93359375 10.09765625 6.93359375 10 9 C9 10 9 10 6.93359375 10.09765625 C3.46679688 10.04882812 3.46679688 10.04882812 0 10 C0 6.7 0 3.4 0 0 Z " fill="#FFFFFF" transform="translate(116,108)"/>
<path d="M0 0 C3.3 0 6.6 0 10 0 C10 3.3 10 6.6 10 10 C3.06640625 10.09765625 3.06640625 10.09765625 1 10 C0 9 0 9 -0.09765625 6.93359375 C-0.06510417 4.62239583 -0.03255208 2.31119792 0 0 Z " fill="#FFFFFF" transform="translate(59,108)"/>
<path d="M0 0 C3.63 0 7.26 0 11 0 C11.3125 3.3125 11.3125 3.3125 11 7 C8.19104748 9.56110377 6.47593344 9.97306037 2.6875 10.1875 C1.3571875 10.0946875 1.3571875 10.0946875 0 10 C0 6.7 0 3.4 0 0 Z " fill="#FDFDFD" transform="translate(70,40)"/>
<path d="M0 0 C3.63 0 7.26 0 11 0 C10.49287967 3.71888239 9.88391785 6.73454239 8 10 C5.36 10 2.72 10 0 10 C0 6.7 0 3.4 0 0 Z " fill="#1F1F20" transform="translate(138,97)"/>
<path d="M0 0 C6.625 -0.125 6.625 -0.125 10 1 C10 3.97 10 6.94 10 10 C6.7 10 3.4 10 0 10 C0 6.7 0 3.4 0 0 Z " fill="#1E1E1F" transform="translate(82,142)"/>
<path d="M0 0 C6.0546875 -0.1953125 6.0546875 -0.1953125 8 0 C10 2 10 2 10.1953125 3.9453125 C10.13020833 5.96354167 10.06510417 7.98177083 10 10 C6.7 10 3.4 10 0 10 C0 6.7 0 3.4 0 0 Z " fill="#FFFFFF" transform="translate(59,142)"/>
<path d="M0 0 C2.01822917 0.06510417 4.03645833 0.13020833 6.0546875 0.1953125 C6.0546875 3.4953125 6.0546875 6.7953125 6.0546875 10.1953125 C2.7546875 10.1953125 -0.5453125 10.1953125 -3.9453125 10.1953125 C-4.140625 4.140625 -4.140625 4.140625 -3.9453125 2.1953125 C-1.9453125 0.1953125 -1.9453125 0.1953125 0 0 Z " fill="#FEFEFE" transform="translate(130.9453125,130.8046875)"/>
<path d="M0 0 C3.3 0 6.6 0 10 0 C10 3.3 10 6.6 10 10 C3.9453125 10.1953125 3.9453125 10.1953125 2 10 C0 8 0 8 -0.1953125 6.0546875 C-0.13020833 4.03645833 -0.06510417 2.01822917 0 0 Z " fill="#FEFEFE" transform="translate(82,131)"/>
<path d="M0 0 C6.0546875 -0.1953125 6.0546875 -0.1953125 8 0 C10 2 10 2 10.1953125 3.9453125 C10.13020833 5.96354167 10.06510417 7.98177083 10 10 C6.7 10 3.4 10 0 10 C0 6.7 0 3.4 0 0 Z " fill="#FEFEFE" transform="translate(48,131)"/>
<path d="M0 0 C3.3 0 6.6 0 10 0 C10.29296875 6.0546875 10.29296875 6.0546875 10 8 C6.3558226 10.4294516 4.28758728 10.16179575 0 10 C0 6.7 0 3.4 0 0 Z " fill="#FDFDFD" transform="translate(93,131)"/>
<path d="M0 0 C2.31 0 4.62 0 7 0 C7 3.63 7 7.26 7 11 C3.7 11 0.4 11 -3 11 C-1.125 2.25 -1.125 2.25 0 0 Z " fill="#222223" transform="translate(142,85)"/>
<path d="M0 0 C4.62 0 9.24 0 14 0 C12.50260417 1.72526042 11.00520833 3.45052083 9.5078125 5.17578125 C7.8359553 7.13498212 7.8359553 7.13498212 6 10 C2.875 10.1875 2.875 10.1875 0 10 C0 6.7 0 3.4 0 0 Z " fill="#FDFDFD" transform="translate(36,29)"/>
<path d="M0 0 C0 3.3 0 6.6 0 10 C-3.3 10 -6.6 10 -10 10 C-10.35915493 3.65492958 -10.35915493 3.65492958 -8.9375 1.0625 C-5.98831309 -0.55479605 -3.29132441 -0.18630138 0 0 Z " fill="#FFFFFF" transform="translate(126,142)"/>
<path d="M0 0 C1.98 0 3.96 0 6 0 C6.67408308 1.26691507 7.33900497 2.53870749 8 3.8125 C8.556875 4.87404297 8.556875 4.87404297 9.125 5.95703125 C10 8 10 8 10 11 C6.7 11 3.4 11 0 11 C0 7.37 0 3.74 0 0 Z " fill="#212122" transform="translate(36,85)"/>
<path d="M0 0 C3.3 0 6.6 0 10 0 C9.39301257 4.12751449 7.96189209 7.3321148 6 11 C4.02 11 2.04 11 0 11 C0 7.37 0 3.74 0 0 Z " fill="#212122" transform="translate(36,51)"/>
<path d="M0 0 C3.3 0 6.6 0 10 0 C10 2.97 10 5.94 10 9 C6.7 9 3.4 9 0 9 C0 6.03 0 3.06 0 0 Z " fill="#1E1E1F" transform="translate(127,166)"/>
<path d="M0 0 C3.3 0 6.6 0 10 0 C10 2.97 10 5.94 10 9 C6.7 9 3.4 9 0 9 C0 6.03 0 3.06 0 0 Z " fill="#1E1E1F" transform="translate(116,166)"/>
<path d="M0 0 C3.3 0 6.6 0 10 0 C10 2.97 10 5.94 10 9 C6.7 9 3.4 9 0 9 C0 6.03 0 3.06 0 0 Z " fill="#1E1E1F" transform="translate(93,166)"/>
<path d="M0 0 C3.3 0 6.6 0 10 0 C10 2.97 10 5.94 10 9 C6.7 9 3.4 9 0 9 C0 6.03 0 3.06 0 0 Z " fill="#1E1E1F" transform="translate(82,166)"/>
<path d="M0 0 C3.3 0 6.6 0 10 0 C10 2.97 10 5.94 10 9 C6.7 9 3.4 9 0 9 C0 6.03 0 3.06 0 0 Z " fill="#1E1E1F" transform="translate(59,166)"/>
<path d="M0 0 C3.3 0 6.6 0 10 0 C10 2.97 10 5.94 10 9 C6.7 9 3.4 9 0 9 C0 6.03 0 3.06 0 0 Z " fill="#1E1E1F" transform="translate(48,166)"/>
<path d="M0 0 C2.97 0 5.94 0 9 0 C9 3.3 9 6.6 9 10 C6.03 10 3.06 10 0 10 C0 6.7 0 3.4 0 0 Z " fill="#FFFFFF" transform="translate(161,142)"/>
<path d="M0 0 C2.97 0 5.94 0 9 0 C9 3.3 9 6.6 9 10 C6.03 10 3.06 10 0 10 C0 6.7 0 3.4 0 0 Z " fill="#FFFFFF" transform="translate(161,131)"/>
<path d="M0 0 C2.97 0 5.94 0 9 0 C9 3.3 9 6.6 9 10 C6.03 10 3.06 10 0 10 C0 6.7 0 3.4 0 0 Z " fill="#FFFFFF" transform="translate(161,108)"/>
<path d="M0 0 C2.97 0 5.94 0 9 0 C9 3.3 9 6.6 9 10 C6.03 10 3.06 10 0 10 C0 6.7 0 3.4 0 0 Z " fill="#FFFFFF" transform="translate(161,97)"/>
<path d="M0 0 C2.97 0 5.94 0 9 0 C9 3.3 9 6.6 9 10 C6.03 10 3.06 10 0 10 C0 6.7 0 3.4 0 0 Z " fill="#FFFFFF" transform="translate(161,74)"/>
<path d="M0 0 C2.97 0 5.94 0 9 0 C9 3.3 9 6.6 9 10 C6.03 10 3.06 10 0 10 C0 6.7 0 3.4 0 0 Z " fill="#FFFFFF" transform="translate(161,63)"/>
<path d="M0 0 C0 3.3 0 6.6 0 10 C-3.63 10 -7.26 10 -11 10 C-9.5655021 2.8275105 -7.48385159 0 0 0 Z " fill="#1F1F20" transform="translate(47,40)"/>
<path d="M0 0 C2.97 0 5.94 0 9 0 C9 3.3 9 6.6 9 10 C6.03 10 3.06 10 0 10 C0 6.7 0 3.4 0 0 Z " fill="#FFFFFF" transform="translate(161,29)"/>
<path d="M0 0 C3.53677664 -0.32152515 5.3962104 -0.4131192 8.375 1.625 C10.4131192 4.6037896 10.32152515 6.46322336 10 10 C6.7 10 3.4 10 0 10 C0 6.7 0 3.4 0 0 Z " fill="#1E1E1F" transform="translate(127,29)"/>
<path d="M0 0 C2.97 0 5.94 0 9 0 C9 3.3 9 6.6 9 10 C6.03 10 3.06 10 0 10 C0 6.7 0 3.4 0 0 Z " fill="#FFFFFF" transform="translate(161,6)"/>
<path d="M0 0 C0.02689216 1.47906892 0.04634621 2.95827483 0.0625 4.4375 C0.07410156 5.26121094 0.08570313 6.08492187 0.09765625 6.93359375 C0 9 0 9 -1 10 C-2.51928038 10.07179964 -4.04167482 10.08392007 -5.5625 10.0625 C-6.38878906 10.05347656 -7.21507812 10.04445313 -8.06640625 10.03515625 C-8.70449219 10.02355469 -9.34257813 10.01195312 -10 10 C-10.32152515 6.46322336 -10.4131192 4.6037896 -8.375 1.625 C-5.3962104 -0.4131192 -3.53677664 -0.32152515 0 0 Z " fill="#1E1E1F" transform="translate(58,29)"/>
<path d="M0 0 C3.3 0 6.6 0 10 0 C10 2.64 10 5.28 10 8 C6.52674819 9.1577506 3.63932552 9.06866652 0 9 C0 6.03 0 3.06 0 0 Z " fill="#1F1F20" transform="translate(82,17)"/>
<path d="M0 0 C3.3 0 6.6 0 10 0 C10 2.97 10 5.94 10 9 C6.7 8.67 3.4 8.34 0 8 C0 5.36 0 2.72 0 0 Z " fill="#1E1E1F" transform="translate(93,17)"/>
<path d="M0 0 C1.4540625 0.0309375 1.4540625 0.0309375 2.9375 0.0625 C2.9375 3.6925 2.9375 7.3225 2.9375 11.0625 C-0.0325 11.0625 -3.0025 11.0625 -6.0625 11.0625 C-5.75467504 9.41578588 -5.44110766 7.77014424 -5.125 6.125 C-4.95097656 5.20847656 -4.77695313 4.29195313 -4.59765625 3.34765625 C-3.78895462 -0.10555875 -3.68748939 0.07525489 0 0 Z " fill="#FBFBFB" transform="translate(157.0625,84.9375)"/>
<path d="M0 0 C3.3 0 6.6 0 10 0 C9.43761722 3.93667948 8.56264345 6.90715445 6 10 C2.8125 10.3125 2.8125 10.3125 0 10 C0 6.7 0 3.4 0 0 Z " fill="#FCFCFC" transform="translate(127,97)"/>
<path d="M0 0 C3.3 0 6.6 0 10 0 C10 3.3 10 6.6 10 10 C8.02 10 6.04 10 4 10 C0 3.375 0 3.375 0 0 Z " fill="#FCFCFC" transform="translate(48,97)"/>
<path d="M0 0 C0 3.3 0 6.6 0 10 C-3.3 10 -6.6 10 -10 10 C-9.22377743 3.20805247 -6.98805823 0 0 0 Z " fill="#212122" transform="translate(137,108)"/>
<path d="M0 0 C5 0 5 0 6.58203125 1.42578125 C6.98808594 2.04839844 7.39414062 2.67101562 7.8125 3.3125 C8.23144531 3.92738281 8.65039062 4.54226562 9.08203125 5.17578125 C10 7 10 7 10 10 C6.7 10 3.4 10 0 10 C0 6.7 0 3.4 0 0 Z " fill="#202021" transform="translate(48,108)"/>
<path d="M0 0 C0.66 0.99 1.32 1.98 2 3 C0.35 3 -1.3 3 -3 3 C-3 6.3 -3 9.6 -3 13 C-0.03 13 2.94 13 6 13 C6 13.33 6 13.66 6 14 C2.7 14.33 -0.6 14.66 -4 15 C-5.33611905 13.0226631 -6.66899258 11.04327287 -8 9.0625 C-8.3815625 8.49853516 -8.763125 7.93457031 -9.15625 7.35351562 C-12 3.11328125 -12 3.11328125 -12 2 C-10.56359829 1.80426392 -9.12580496 1.61872184 -7.6875 1.4375 C-6.88699219 1.33308594 -6.08648437 1.22867188 -5.26171875 1.12109375 C-3 1 -3 1 0 2 C0 1.34 0 0.68 0 0 Z " fill="#414142" transform="translate(51,105)"/>
<path d="M0 0 C1.98 0 3.96 0 6 0 C6.99 3.63 7.98 7.26 9 11 C6.03 11 3.06 11 0 11 C0 7.37 0 3.74 0 0 Z " fill="#FDFDFD" transform="translate(25,85)"/>
<path d="M0 0 C3.3 0 6.6 0 10 0 C9.69481346 3.56050965 8.99971192 5.00035037 6.6875 7.8125 C4 10 4 10 0 10 C0 6.7 0 3.4 0 0 Z " fill="#222223" transform="translate(116,131)"/>
<path d="M0 0 C3.3 0 6.6 0 10 0 C10 3.3 10 6.6 10 10 C6.43949035 9.69481346 4.99964963 8.99971192 2.1875 6.6875 C0 4 0 4 0 0 Z " fill="#202021" transform="translate(59,131)"/>
<path d="M0 0 C3.3 0 6.6 0 10 0 C9.06009049 3.75963804 8.52245369 4.95893451 6.125 7.75 C5.61195313 8.36359375 5.09890625 8.9771875 4.5703125 9.609375 C3 11 3 11 0 11 C0 7.37 0 3.74 0 0 Z " fill="#202021" transform="translate(127,119)"/>
<path d="M0 0 C2.97 0 5.94 0 9 0 C8.01 3.63 7.02 7.26 6 11 C4.02 11 2.04 11 0 11 C0 7.37 0 3.74 0 0 Z " fill="#FCFCFC" transform="translate(25,51)"/>
<path d="M0 0 C1.65 0 3.3 0 5 0 C6.58203125 1.6796875 6.58203125 1.6796875 7.8125 3.875 C8.44091797 4.95394531 8.44091797 4.95394531 9.08203125 6.0546875 C10 8 10 8 10 10 C6.7 10 3.4 10 0 10 C0 6.7 0 3.4 0 0 Z " fill="#212122" transform="translate(138,40)"/>
<path d="M0 0 C3.3 0 6.6 0 10 0 C10 3.63 10 7.26 10 11 C5.65510105 9.91377526 5.20875221 9.49606054 2.75 6.0625 C2.22921875 5.35222656 1.7084375 4.64195313 1.171875 3.91015625 C0 2 0 2 0 0 Z " fill="#202021" transform="translate(48,119)"/>
<path d="M0 0 C1.32 0 2.64 0 4 0 C4.58353108 3.3344633 4.46121107 5.33542027 2.51171875 8.14453125 C-2.26375598 13.63187799 -2.26375598 13.63187799 -5 15 C-6.99960012 15.039992 -9.00047242 15.04346799 -11 15 C-11 13.68 -11 12.36 -11 11 C-7.7 10.67 -4.4 10.34 -1 10 C-1.020625 8.535625 -1.04125 7.07125 -1.0625 5.5625 C-1.08392007 4.04167482 -1.07179964 2.51928038 -1 1 C-0.67 0.67 -0.34 0.34 0 0 Z " fill="#F7F7F7" transform="translate(104,74)"/>
<path d="M0 0 C3.63 0 7.26 0 11 0 C11 2.31 11 4.62 11 7 C7.37 7 3.74 7 0 7 C0 4.69 0 2.38 0 0 Z " fill="#FFFFFF" transform="translate(104,187)"/>
<path d="M0 0 C3.63 0 7.26 0 11 0 C11 2.31 11 4.62 11 7 C7.37 7 3.74 7 0 7 C0 4.69 0 2.38 0 0 Z " fill="#FFFFFF" transform="translate(13,187)"/>
<path d="M0 0 C0 3.3 0 6.6 0 10 C-3.63 10 -7.26 10 -11 10 C-9.91377526 5.65510105 -9.49606054 5.20875221 -6.0625 2.75 C-5.35222656 2.22921875 -4.64195313 1.7084375 -3.91015625 1.171875 C-2 0 -2 0 0 0 Z " fill="#222223" transform="translate(115,131)"/>
<path d="M0 0 C0 2.97 0 5.94 0 9 C-3.3 9 -6.6 9 -10 9 C-10 7.02 -10 5.04 -10 3 C-8.70990357 2.49596232 -7.41786211 1.99690074 -6.125 1.5 C-5.04605469 1.08234375 -5.04605469 1.08234375 -3.9453125 0.65625 C-2 0 -2 0 0 0 Z " fill="#1F1F20" transform="translate(103,87)"/>
<path d="M0 0 C1.98 0 3.96 0 6 0 C6 3.3 6 6.6 6 10 C3.03 10 0.06 10 -3 10 C-2.01 6.7 -1.02 3.4 0 0 Z " fill="#1E1E1F" transform="translate(109,74)"/>
<path d="M0 0 C3.63 0 7.26 0 11 0 C11 2.97 11 5.94 11 9 C6.5221629 7.75037104 3.35725691 6.25851406 0 3 C0 2.01 0 1.02 0 0 Z " fill="#232324" transform="translate(70,142)"/>
<path d="M0 0 C2.79009819 1.39504909 5.208284 2.69414351 7.75 4.4375 C8.36359375 4.84871094 8.9771875 5.25992188 9.609375 5.68359375 C10.06828125 6.11800781 10.5271875 6.55242187 11 7 C11 7.99 11 8.98 11 10 C7.37 10 3.74 10 0 10 C0 6.7 0 3.4 0 0 Z " fill="#202021" transform="translate(70,131)"/>
<path d="M0 0 C3.3 0 6.6 0 10 0 C10 2.31 10 4.62 10 7 C6.7 7 3.4 7 0 7 C0 4.69 0 2.38 0 0 Z " fill="#FFFFFF" transform="translate(150,187)"/>
<path d="M0 0 C3.3 0 6.6 0 10 0 C10 2.31 10 4.62 10 7 C6.7 7 3.4 7 0 7 C0 4.69 0 2.38 0 0 Z " fill="#FFFFFF" transform="translate(127,187)"/>
<path d="M0 0 C3.3 0 6.6 0 10 0 C10 2.31 10 4.62 10 7 C6.7 7 3.4 7 0 7 C0 4.69 0 2.38 0 0 Z " fill="#FFFFFF" transform="translate(116,187)"/>
<path d="M0 0 C3.3 0 6.6 0 10 0 C10 2.31 10 4.62 10 7 C6.7 7 3.4 7 0 7 C0 4.69 0 2.38 0 0 Z " fill="#FFFFFF" transform="translate(93,187)"/>
<path d="M0 0 C3.3 0 6.6 0 10 0 C10 2.31 10 4.62 10 7 C6.7 7 3.4 7 0 7 C0 4.69 0 2.38 0 0 Z " fill="#FFFFFF" transform="translate(82,187)"/>
<path d="M0 0 C3.3 0 6.6 0 10 0 C10 2.31 10 4.62 10 7 C6.7 7 3.4 7 0 7 C0 4.69 0 2.38 0 0 Z " fill="#FFFFFF" transform="translate(59,187)"/>
<path d="M0 0 C3.3 0 6.6 0 10 0 C10 2.31 10 4.62 10 7 C6.7 7 3.4 7 0 7 C0 4.69 0 2.38 0 0 Z " fill="#FFFFFF" transform="translate(48,187)"/>
<path d="M0 0 C3.3 0 6.6 0 10 0 C10 2.31 10 4.62 10 7 C6.7 7 3.4 7 0 7 C0 4.69 0 2.38 0 0 Z " fill="#FFFFFF" transform="translate(25,187)"/>
<path d="M0 0 C3.3 0 6.6 0 10 0 C10 2.31 10 4.62 10 7 C6.7 7 3.4 7 0 7 C0 4.69 0 2.38 0 0 Z " fill="#FFFFFF" transform="translate(2,187)"/>
<path d="M0 0 C3.54386609 1.77193305 4.84126206 2.62897902 7.25 5.5 C8.03117187 6.41265625 8.03117187 6.41265625 8.828125 7.34375 C10 9 10 9 10 11 C6.7 11 3.4 11 0 11 C0 7.37 0 3.74 0 0 Z " fill="#222223" transform="translate(59,119)"/>
<path d="M0 0 C3.82669043 3.42388092 5.72278474 6.00724943 7 11 C4.03 11 1.06 11 -2 11 C-2 7.7 -2 4.4 -2 1 C-1.34 0.67 -0.68 0.34 0 0 Z " fill="#FAFAFA" transform="translate(38,107)"/>
<path d="M0 0 C3.3 0.99 6.6 1.98 10 3 C10 4.98 10 6.96 10 9 C6.7 9 3.4 9 0 9 C0 6.03 0 3.06 0 0 Z " fill="#1F1F20" transform="translate(82,87)"/>
<path d="M0 0 C2.97 0 5.94 0 9 0 C9 3.3 9 6.6 9 10 C7.02 10 5.04 10 3 10 C2.01 6.7 1.02 3.4 0 0 Z " fill="#1F1F20" transform="translate(106,63)"/>
<path d="M0 0 C0 2.97 0 5.94 0 9 C-3.3 9 -6.6 9 -10 9 C-8.94523499 4.78093998 -8.1470668 3.76560416 -5 1 C-3 0 -3 0 0 0 Z " fill="#242425" transform="translate(69,19)"/>
<path d="M0 0 C2.64 0 5.28 0 8 0 C8 3.3 8 6.6 8 10 C6.02 10 4.04 10 2 10 C1.34 6.7 0.68 3.4 0 0 Z " fill="#FEFEFE" transform="translate(141,165)"/>
<path d="M0 0 C3.63 0 7.26 0 11 0 C11 0.99 11 1.98 11 3 C8.84765625 4.60546875 8.84765625 4.60546875 6.0625 6.1875 C5.14597656 6.71730469 4.22945313 7.24710938 3.28515625 7.79296875 C1 9 1 9 0 9 C0 6.03 0 3.06 0 0 Z " fill="#222223" transform="translate(104,142)"/>
<path d="M0 0 C2.31 0 4.62 0 7 0 C7 3.3 7 6.6 7 10 C5.02 10 3.04 10 1 10 C0.67 6.7 0.34 3.4 0 0 Z " fill="#1E1E1F" transform="translate(142,63)"/>
<path d="M0 0 C3.93370357 0.56195765 6.83175607 1.55592611 10 4 C10 5.32 10 6.64 10 8 C6.7 8 3.4 8 0 8 C0 5.36 0 2.72 0 0 Z " fill="#202021" transform="translate(116,20)"/>
<path d="M0 0 C2.97 0 5.94 0 9 0 C9 2.31 9 4.62 9 7 C6.03 7 3.06 7 0 7 C0 4.69 0 2.38 0 0 Z " fill="#FFFFFF" transform="translate(161,187)"/>
<path d="M0 0 C3.3 0 6.6 0 10 0 C10 2.64 10 5.28 10 8 C6.7 7.01 3.4 6.02 0 5 C0 3.35 0 1.7 0 0 Z " fill="#222223" transform="translate(93,51)"/>
<path d="M0 0 C0 2.31 0 4.62 0 7 C-3.3 7 -6.6 7 -10 7 C-10 5.35 -10 3.7 -10 2 C-6.38026598 0.68373308 -3.90432869 0 0 0 Z " fill="#FDFDFD" transform="translate(103,100)"/>
<path d="M0 0 C1.65 0 3.3 0 5 0 C5 3.3 5 6.6 5 10 C2.69 10 0.38 10 -2 10 C-1.125 2.25 -1.125 2.25 0 0 Z " fill="#FDFDFD" transform="translate(121,74)"/>
<path d="M0 0 C1.65 0 3.3 0 5 0 C5.99 3.3 6.98 6.6 8 10 C5.36 10 2.72 10 0 10 C0 6.7 0 3.4 0 0 Z " fill="#1F1F20" transform="translate(70,74)"/>
<path d="M0 0 C0 3.3 0 6.6 0 10 C-2.97 10 -5.94 10 -9 10 C-7.6834994 5.81113445 -4.97532335 0 0 0 Z " fill="#FCFCFC" transform="translate(149,108)"/>
<path d="M0 0 C2.31 0 4.62 0 7 0 C7 3.3 7 6.6 7 10 C5.35 10 3.7 10 2 10 C0.68373308 6.38026598 0 3.90432869 0 0 Z " fill="#FAFAFA" transform="translate(119,63)"/>
<path d="M0 0 C1.98 0 3.96 0 6 0 C6 3.3 6 6.6 6 10 C4.02 10 2.04 10 0 10 C0 6.7 0 3.4 0 0 Z " fill="#1E1E1F" transform="translate(143,74)"/>
<path d="M0 0 C0.33 0 0.66 0 1 0 C1 2.97 1 5.94 1 9 C3.64 9 6.28 9 9 9 C9 9.33 9 9.66 9 10 C6.36 10 3.72 10 1 10 C1 13.3 1 16.6 1 20 C0.67 20 0.34 20 0 20 C0 16.7 0 13.4 0 10 C-2.475 11.485 -2.475 11.485 -5 13 C-3.58192622 8.52761347 -1.88695626 4.28853694 0 0 Z M-10 19 C-6.7 19.33 -3.4 19.66 0 20 C0 20.33 0 20.66 0 21 C-3.3 21 -6.6 21 -10 21 C-10 20.34 -10 19.68 -10 19 Z " fill="#EEEEEE" transform="translate(149,98)"/>
<path d="M0 0 C4.95 0.99 4.95 0.99 10 2 C10 3.65 10 5.3 10 7 C6.7 7 3.4 7 0 7 C0 4.69 0 2.38 0 0 Z " fill="#FEFEFE" transform="translate(82,100)"/>
<path d="M0 0 C2.64 0 5.28 0 8 0 C8 0.66 8 1.32 8 2 C7.34 2 6.68 2 6 2 C5.67 4.64 5.34 7.28 5 10 C3.35 10 1.7 10 0 10 C0 6.7 0 3.4 0 0 Z " fill="#FAFAFA" transform="translate(36,165)"/>
<path d="M0 0 C0 3.3 0 6.6 0 10 C-3.3 10 -6.6 10 -10 10 C-8.21055227 6.42110455 -7.35364331 5.16084082 -4.4375 2.75 C-3.81746094 2.22921875 -3.19742188 1.7084375 -2.55859375 1.171875 C-1 0 -1 0 0 0 Z " fill="#1E1E1F" transform="translate(126,120)"/>
<path d="M0 0 C2.31 0 4.62 0 7 0 C6.34 3.3 5.68 6.6 5 10 C3.35 10 1.7 10 0 10 C0 6.7 0 3.4 0 0 Z " fill="#202021" transform="translate(70,63)"/>
<path d="M0 0 C1.98 0 3.96 0 6 0 C6 3.3 6 6.6 6 10 C4.35 10 2.7 10 1 10 C-0.1577506 6.52674819 -0.06866652 3.63932552 0 0 Z " fill="#FFFFFF" transform="translate(154,63)"/>
<path d="M0 0 C3.3 0 6.6 0 10 0 C9.67 1.65 9.34 3.3 9 5 C6.03 5.66 3.06 6.32 0 7 C0 4.69 0 2.38 0 0 Z " fill="#202021" transform="translate(82,51)"/>
<path d="M0 0 C0 3.3 0 6.6 0 10 C-3.3 10 -6.6 10 -10 10 C-8.21055227 6.42110455 -7.35364331 5.16084082 -4.4375 2.75 C-3.81746094 2.22921875 -3.19742188 1.7084375 -2.55859375 1.171875 C-1 0 -1 0 0 0 Z " fill="#FDFDFD" transform="translate(58,40)"/>
<path d="M0 0 C3.3 0 6.6 0 10 0 C10 2.64 10 5.28 10 8 C6.4134946 6.66786942 3.12317517 5.23083941 0 3 C0 2.01 0 1.02 0 0 Z " fill="#232324" transform="translate(116,29)"/>
<path d="M0 0 C1.98 0 3.96 0 6 0 C6 3.3 6 6.6 6 10 C4.35 10 2.7 10 1 10 C0.67 6.7 0.34 3.4 0 0 Z " fill="#FDFDFD" transform="translate(41,74)"/>
<path d="M0 0 C3.63 0 7.26 0 11 0 C11 1.65 11 3.3 11 5 C7.37 5 3.74 5 0 5 C0 3.35 0 1.7 0 0 Z " fill="#FFFFFF" transform="translate(138,0)"/>
<path d="M0 0 C3.63 0 7.26 0 11 0 C11 1.65 11 3.3 11 5 C7.37 5 3.74 5 0 5 C0 3.35 0 1.7 0 0 Z " fill="#FFFFFF" transform="translate(104,0)"/>
<path d="M0 0 C3.63 0 7.26 0 11 0 C11 1.65 11 3.3 11 5 C7.37 5 3.74 5 0 5 C0 3.35 0 1.7 0 0 Z " fill="#FFFFFF" transform="translate(70,0)"/>
<path d="M0 0 C3.63 0 7.26 0 11 0 C11 1.65 11 3.3 11 5 C7.37 5 3.74 5 0 5 C0 3.35 0 1.7 0 0 Z " fill="#FFFFFF" transform="translate(36,0)"/>
<path d="M0 0 C3.63 0 7.26 0 11 0 C11 1.65 11 3.3 11 5 C7.37 5 3.74 5 0 5 C0 3.35 0 1.7 0 0 Z " fill="#FFFFFF" transform="translate(13,0)"/>
<path d="M0 0 C0.33 0 0.66 0 1 0 C1 2.97 1 5.94 1 9 C4.3 9 7.6 9 11 9 C11 6.03 11 3.06 11 0 C11.33 0 11.66 0 12 0 C12 2.97 12 5.94 12 9 C14.97 9 17.94 9 21 9 C21 9.33 21 9.66 21 10 C14.06214241 10.92504768 6.99402934 11.64375621 0 11 C-0.66 10.34 -1.32 9.68 -2 9 C-1.34 9 -0.68 9 0 9 C0 6.03 0 3.06 0 0 Z " fill="#333334" transform="translate(92,166)"/>
<path d="M0 0 C1.65 0 3.3 0 5 0 C5 3.3 5 6.6 5 10 C3.02 10 1.04 10 -1 10 C-0.67 6.7 -0.34 3.4 0 0 Z " fill="#FEFEFE" transform="translate(155,74)"/>
<path d="M0 0 C1.32 0 2.64 0 4 0 C5.60355101 3.50776784 6.22036864 6.14354879 6 10 C4.02 10 2.04 10 0 10 C0 6.7 0 3.4 0 0 Z " fill="#242425" transform="translate(36,74)"/>
<path d="M0 0 C2.09749995 2.35968744 2.96905704 3.54616994 3.1875 6.75 C3.0946875 7.86375 3.0946875 7.86375 3 9 C2.01 9 1.02 9 0 9 C0 6.03 0 3.06 0 0 Z M-11 9 C-7.37 9 -3.74 9 0 9 C0 9.33 0 9.66 0 10 C-3.3 10 -6.6 10 -10 10 C-10 13.3 -10 16.6 -10 20 C-10.33 20 -10.66 20 -11 20 C-11 16.37 -11 12.74 -11 9 Z M-17 17 C-16.67 17.99 -16.34 18.98 -16 20 C-14.35 20 -12.7 20 -11 20 C-11 20.33 -11 20.66 -11 21 C-12.65 21 -14.3 21 -16 21 C-16.33 21.66 -16.66 22.32 -17 23 C-17 21.02 -17 19.04 -17 17 Z " fill="#E6E6E6" transform="translate(137,53)"/>
<path d="M0 0 C1.32 0 2.64 0 4 0 C4.66 3.3 5.32 6.6 6 10 C4.02 10 2.04 10 0 10 C0 6.7 0 3.4 0 0 Z " fill="#FDFDFD" transform="translate(59,74)"/>
<path d="M0 0 C0 1.98 0 3.96 0 6 C-3.3 6 -6.6 6 -10 6 C-9 2 -9 2 -7.25 0.75 C-4.71262971 -0.0957901 -2.65765704 -0.14764761 0 0 Z " fill="#FAFAFA" transform="translate(92,56)"/>
<path d="M0 0 C3.3 0 6.6 0 10 0 C10 1.98 10 3.96 10 6 C6.53058454 5.54177532 3.32604951 5.10868317 0 4 C0 2.68 0 1.36 0 0 Z " fill="#FCFCFC" transform="translate(93,40)"/>
<path d="M0 0 C0 2.31 0 4.62 0 7 C-3.3 7 -6.6 7 -10 7 C-7.61901821 2.23803643 -5.46664876 0 0 0 Z " fill="#FAFAFA" transform="translate(69,32)"/>
<path d="M0 0 C1.98 0 3.96 0 6 0 C5.34 3.3 4.68 6.6 4 10 C2.68 10 1.36 10 0 10 C0 6.7 0 3.4 0 0 Z " fill="#1E1E1F" transform="translate(36,63)"/>
<path d="M0 0 C6.57142857 5 6.57142857 5 8 10 C5.36 10 2.72 10 0 10 C0 6.7 0 3.4 0 0 Z " fill="#FAFAFA" transform="translate(127,40)"/>
<path d="M0 0 C3.3 0 6.6 0 10 0 C10 1.65 10 3.3 10 5 C6.7 5 3.4 5 0 5 C0 3.35 0 1.7 0 0 Z " fill="#FFFFFF" transform="translate(150,0)"/>
<path d="M0 0 C3.3 0 6.6 0 10 0 C10 1.65 10 3.3 10 5 C6.7 5 3.4 5 0 5 C0 3.35 0 1.7 0 0 Z " fill="#FFFFFF" transform="translate(127,0)"/>
<path d="M0 0 C3.3 0 6.6 0 10 0 C10 1.65 10 3.3 10 5 C6.7 5 3.4 5 0 5 C0 3.35 0 1.7 0 0 Z " fill="#FFFFFF" transform="translate(116,0)"/>
<path d="M0 0 C3.3 0 6.6 0 10 0 C10 1.65 10 3.3 10 5 C6.7 5 3.4 5 0 5 C0 3.35 0 1.7 0 0 Z " fill="#FFFFFF" transform="translate(93,0)"/>
<path d="M0 0 C3.3 0 6.6 0 10 0 C10 1.65 10 3.3 10 5 C6.7 5 3.4 5 0 5 C0 3.35 0 1.7 0 0 Z " fill="#FFFFFF" transform="translate(82,0)"/>
<path d="M0 0 C3.3 0 6.6 0 10 0 C10 1.65 10 3.3 10 5 C6.7 5 3.4 5 0 5 C0 3.35 0 1.7 0 0 Z " fill="#FFFFFF" transform="translate(59,0)"/>
<path d="M0 0 C3.3 0 6.6 0 10 0 C10 1.65 10 3.3 10 5 C6.7 5 3.4 5 0 5 C0 3.35 0 1.7 0 0 Z " fill="#FFFFFF" transform="translate(48,0)"/>
<path d="M0 0 C3.3 0 6.6 0 10 0 C10 1.65 10 3.3 10 5 C6.7 5 3.4 5 0 5 C0 3.35 0 1.7 0 0 Z " fill="#FFFFFF" transform="translate(25,0)"/>
<path d="M0 0 C1.65 0 3.3 0 5 0 C5 2.97 5 5.94 5 9 C3.35 9.33 1.7 9.66 0 10 C0 6.7 0 3.4 0 0 Z " fill="#FAFAFA" transform="translate(138,74)"/>
<path d="M0 0 C2.64 0 5.28 0 8 0 C8 3.3 8 6.6 8 10 C7.34 10 6.68 10 6 10 C4.4921875 8.3203125 4.4921875 8.3203125 2.875 6.125 C2.33617187 5.40570313 1.79734375 4.68640625 1.2421875 3.9453125 C0 2 0 2 0 0 Z " fill="#252526" transform="translate(129,40)"/>
<path d="M0 0 C3.3 0 6.6 0 10 0 C10 1.32 10 2.64 10 4 C6.7 4.66 3.4 5.32 0 6 C0 4.02 0 2.04 0 0 Z " fill="#FBFBFB" transform="translate(82,40)"/>
<path d="M0 0 C0 2.97 0 5.94 0 9 C-1.66611905 9.042721 -3.33382885 9.04063832 -5 9 C-5.33 8.67 -5.66 8.34 -6 8 C-5.6875 4.5 -5.6875 4.5 -5 1 C-3 0 -3 0 0 0 Z " fill="#222223" transform="translate(47,166)"/>
<path d="M0 0 C1.65 0 3.3 0 5 0 C5 3.3 5 6.6 5 10 C3.68 10 2.36 10 1 10 C-0.60725635 6.78548731 -0.05748185 3.56387464 0 0 Z " fill="#1E1E1F" transform="translate(30,74)"/>
<path d="M0 0 C1.32 0 2.64 0 4 0 C4 3.3 4 6.6 4 10 C2.35 10 0.7 10 -1 10 C-1.125 2.25 -1.125 2.25 0 0 Z " fill="#222223" transform="translate(65,63)"/>
<path d="M0 0 C1.98 0 3.96 0 6 0 C5.34 3.3 4.68 6.6 4 10 C2.68 10 1.36 10 0 10 C0 6.7 0 3.4 0 0 Z " fill="#FDFDFD" transform="translate(59,63)"/>
<path d="M0 0 C0 0.33 0 0.66 0 1 C-1.65 1 -3.3 1 -5 1 C-5 4.3 -5 7.6 -5 11 C-5.99 10.67 -6.98 10.34 -8 10 C-7.34 10 -6.68 10 -6 10 C-6 7.03 -6 4.06 -6 1 C-9.3 1 -12.6 1 -16 1 C-16 3.64 -16 6.28 -16 9 C-14.68 9.33 -13.36 9.66 -12 10 C-14.64 10 -17.28 10 -20 10 C-19.01 9.67 -18.02 9.34 -17 9 C-17 6.03 -17 3.06 -17 0 C-11.0885256 -0.77313045 -5.8685408 -1.14819277 0 0 Z " fill="#4D4D4E" transform="translate(109,16)"/>
<path d="M0 0 C1.32 0 2.64 0 4 0 C4 3.3 4 6.6 4 10 C2.35 10 0.7 10 -1 10 C-1.125 3.375 -1.125 3.375 0 0 Z " fill="#1E1E1F" transform="translate(31,63)"/>
<path d="M0 0 C0 1.65 0 3.3 0 5 C-3.3 5 -6.6 5 -10 5 C-10 3.68 -10 2.36 -10 1 C-6.52674819 -0.1577506 -3.63932552 -0.06866652 0 0 Z " fill="#202021" transform="translate(92,45)"/>
<path d="M0 0 C3.3 0 6.6 0 10 0 C8.52440331 4.42679007 6.09942632 4.91432696 2 7 C1.34 7 0.68 7 0 7 C0 4.69 0 2.38 0 0 Z " fill="#232324" transform="translate(59,29)"/>
<path d="M0 0 C1.65 0 3.3 0 5 0 C5 3.3 5 6.6 5 10 C3.68 9.67 2.36 9.34 1 9 C-0.4783226 6.04335481 -0.06032783 3.25770263 0 0 Z " fill="#242425" transform="translate(64,74)"/>
<path d="M0 0 C4.1666604 0.47348414 6.92884715 1.04696841 10 4 C10 4.66 10 5.32 10 6 C6.7 6 3.4 6 0 6 C0 4.02 0 2.04 0 0 Z " fill="#FBFBFB" transform="translate(93,56)"/>
<path d="M0 0 C1.32 0 2.64 0 4 0 C4.33 3.3 4.66 6.6 5 10 C3.35 10 1.7 10 0 10 C0 6.7 0 3.4 0 0 Z " fill="#FEFEFE" transform="translate(25,74)"/>
<path d="M0 0 C2.97 0.33 5.94 0.66 9 1 C9.33 2.32 9.66 3.64 10 5 C6.7 5 3.4 5 0 5 C0 3.35 0 1.7 0 0 Z " fill="#202021" transform="translate(93,45)"/>
<path d="M0 0 C2.97 0 5.94 0 9 0 C9 1.65 9 3.3 9 5 C6.03 5 3.06 5 0 5 C0 3.35 0 1.7 0 0 Z " fill="#FFFFFF" transform="translate(161,0)"/>
<path d="M0 0 C1.65 0 3.3 0 5 0 C4.67 3.3 4.34 6.6 4 10 C2.68 10 1.36 10 0 10 C0 6.7 0 3.4 0 0 Z " fill="#FFFFFF" transform="translate(25,63)"/>
<path d="M0 0 C3.3 0 6.6 0 10 0 C10 1.98 10 3.96 10 6 C6.05879291 5.43697042 3.2491277 4.3208055 0 2 C0 1.34 0 0.68 0 0 Z " fill="#F7F7F7" transform="translate(116,17)"/>
<path d="M0 0 C0.33 0 0.66 0 1 0 C1 2.97 1 5.94 1 9 C2.918125 8.938125 2.918125 8.938125 4.875 8.875 C7.0546875 8.8046875 7.0546875 8.8046875 9 9 C9.66 9.66 10.32 10.32 11 11 C3.74 11 -3.52 11 -11 11 C-11 10.67 -11 10.34 -11 10 C-5.555 9.505 -5.555 9.505 0 9 C0 6.03 0 3.06 0 0 Z " fill="#2E2E2F" transform="translate(81,166)"/>
<path d="M0 0 C1.98 0 3.96 0 6 0 C5.58578031 4.83256305 3.53586014 6.82679218 0 10 C0 6.7 0 3.4 0 0 Z " fill="#242425" transform="translate(138,108)"/>
<path d="M0 0 C3.43927579 1.2419607 6.25207819 2.55740284 9 5 C9 5.66 9 6.32 9 7 C6.03 7 3.06 7 0 7 C0 4.69 0 2.38 0 0 Z " fill="#F9F9F9" transform="translate(116,32)"/>
<path d="M0 0 C3 1 3 1 4.1875 2.75 C5.10819096 5.29960574 5.14948718 7.30923081 5 10 C3.35 10 1.7 10 0 10 C0 6.7 0 3.4 0 0 Z " fill="#F5F5F5" transform="translate(104,63)"/>
<path d="M0 0 C1.98 0 3.96 0 6 0 C6 3.3 6 6.6 6 10 C3.66475218 7.74259377 1.81294927 5.7194239 0 3 C0 2.01 0 1.02 0 0 Z " fill="#222223" transform="translate(41,108)"/>
<path d="M0 0 C1.32 0.33 2.64 0.66 4 1 C4.33 3.31 4.66 5.62 5 8 C3.35 8.33 1.7 8.66 0 9 C0 6.03 0 3.06 0 0 Z " fill="#262627" transform="translate(138,166)"/>
<path d="M0 0 C0.33 0 0.66 0 1 0 C1 2.97 1 5.94 1 9 C3.64 9 6.28 9 9 9 C5.53767506 11.30821663 4.08201684 11.27000989 0 11.25 C-1.051875 11.25515625 -2.10375 11.2603125 -3.1875 11.265625 C-6 11 -6 11 -9 9 C-6.03 9 -3.06 9 0 9 C0 6.03 0 3.06 0 0 Z " fill="#404041" transform="translate(92,143)"/>
<path d="M0 0 C2.31 0 4.62 0 7 0 C7 2.64 7 5.28 7 8 C3.64379729 6.61122646 1.92701272 5.08322035 0 2 C0 1.34 0 0.68 0 0 Z " fill="#F8F8F8" transform="translate(62,119)"/>
<path d="M0 0 C1.32 0 2.64 0 4 0 C4 2.97 4 5.94 4 9 C2.68 9.33 1.36 9.66 0 10 C0 6.7 0 3.4 0 0 Z " fill="#1E1E1F" transform="translate(150,74)"/>
<path d="M0 0 C2.31 0 4.62 0 7 0 C5.63055898 2.94956528 4.12169591 5.52468811 2 8 C1.34 8 0.68 8 0 8 C0 5.36 0 2.72 0 0 Z " fill="#FAFAFA" transform="translate(116,119)"/>
<path d="M0 0 C3.3 0 6.6 0 10 0 C10 1.32 10 2.64 10 4 C2.25 4.125 2.25 4.125 0 3 C0 2.01 0 1.02 0 0 Z " fill="#282829" transform="translate(82,97)"/>
<path d="M0 0 C0.99 0 1.98 0 3 0 C4.60725635 3.21451269 4.05748185 6.43612536 4 10 C2.68 10 1.36 10 0 10 C0 6.7 0 3.4 0 0 Z " fill="#252526" transform="translate(150,63)"/>
<path d="M0 0 C0.99 0 1.98 0 3 0 C4.60725635 3.21451269 4.05748185 6.43612536 4 10 C2.68 10 1.36 10 0 10 C0 6.7 0 3.4 0 0 Z " fill="#FEFEFE" transform="translate(138,63)"/>
<path d="M0 0 C3.59007126 1.33345504 6.79570907 2.8943231 10 5 C10 5.33 10 5.66 10 6 C6.7 6 3.4 6 0 6 C0 4.02 0 2.04 0 0 Z " fill="#FBFBFB" transform="translate(70,146)"/>
<path d="M0 0 C3.3 0 6.6 0 10 0 C10 0.33 10 0.66 10 1 C7.03 1 4.06 1 1 1 C1 4.3 1 7.6 1 11 C2.32 11.33 3.64 11.66 5 12 C3.35 13.32 1.7 14.64 0 16 C0 14.68 0 13.36 0 12 C-0.66 11.67 -1.32 11.34 -2 11 C-1.34 11 -0.68 11 0 11 C0 7.37 0 3.74 0 0 Z " fill="#F3F3F3" transform="translate(69,39)"/>
<path d="M0 0 C0 2.31 0 4.62 0 7 C-2.64 7 -5.28 7 -8 7 C-6.47663111 3.31852519 -4.31953005 0 0 0 Z " fill="#F9F9F9" transform="translate(115,145)"/>
<path d="M0 0 C2.97 0 5.94 0 9 0 C9 0.33 9 0.66 9 1 C6.36 1 3.72 1 1 1 C1 4.3 1 7.6 1 11 C2.32 11.33 3.64 11.66 5 12 C2.47946405 13.26026798 1.1457902 12.91874445 -1.625 12.5625 C-2.44226563 12.46066406 -3.25953125 12.35882813 -4.1015625 12.25390625 C-4.72804688 12.17011719 -5.35453125 12.08632812 -6 12 C-6 11.67 -6 11.34 -6 11 C-4.02 11 -2.04 11 0 11 C0 7.37 0 3.74 0 0 Z " fill="#E8E8E8" transform="translate(92,130)"/>
<path d="M0 0 C0.99 0 1.98 0 3 0 C3.33 3.3 3.66 6.6 4 10 C2.68 10 1.36 10 0 10 C0 6.7 0 3.4 0 0 Z " fill="#202021" transform="translate(116,63)"/>
<path d="M0 0 C3.3 0 6.6 0 10 0 C10 0.66 10 1.32 10 2 C6.7 3.32 3.4 4.64 0 6 C0 4.02 0 2.04 0 0 Z " fill="#FCFCFC" transform="translate(59,17)"/>
<path d="M0 0 C0.79921875 0.00902344 1.5984375 0.01804687 2.421875 0.02734375 C3.02515625 0.03894531 3.6284375 0.05054687 4.25 0.0625 C4.25 0.3925 4.25 0.7225 4.25 1.0625 C1.61 1.0625 -1.03 1.0625 -3.75 1.0625 C-3.75 3.7025 -3.75 6.3425 -3.75 9.0625 C-6.54872437 6.53461993 -8.20773019 4.85838866 -8.75 1.0625 C-5.75519083 0.1901588 -3.11424089 -0.04579766 0 0 Z " fill="#ECECEC" transform="translate(62.75,106.9375)"/>
<path d="M0 0 C3.3 0 6.6 0 10 0 C9.67 0.99 9.34 1.98 9 3 C4.545 3.495 4.545 3.495 0 4 C0 2.68 0 1.36 0 0 Z " fill="#252526" transform="translate(93,97)"/>
<path d="M0 0 C0.33 0 0.66 0 1 0 C1.04241723 2.33294775 1.04092937 4.66702567 1 7 C0 8 0 8 -3.5625 8.0625 C-4.696875 8.041875 -5.83125 8.02125 -7 8 C-6.02133662 6.85373678 -5.04205413 5.70800212 -4.0625 4.5625 C-3.51722656 3.92441406 -2.97195312 3.28632812 -2.41015625 2.62890625 C-1.63204305 1.73008851 -0.84063472 0.84063472 0 0 Z " fill="#E9E9E9" transform="translate(115,89)"/>
<path d="M0 0 C1.32 0 2.64 0 4 0 C4.17942163 3.94727588 4.09350689 6.5980513 2 10 C1.34 10 0.68 10 0 10 C0 6.7 0 3.4 0 0 Z " fill="#222223" transform="translate(116,74)"/>
<path d="M0 0 C2.64 0 5.28 0 8 0 C4.38671875 4.6875 4.38671875 4.6875 3 6 C2.01 6 1.02 6 0 6 C0 4.02 0 2.04 0 0 Z " fill="#F9F9F9" transform="translate(104,131)"/>
<path d="M0 0 C1.66519519 0.34060811 3.33157466 0.67558396 5 1 C5 1.33 5 1.66 5 2 C2.36 2 -0.28 2 -3 2 C-3 5.3 -3 8.6 -3 12 C-3.33 12 -3.66 12 -4 12 C-4 8.7 -4 5.4 -4 2 C-5.32 1.34 -6.64 0.68 -8 0 C-4.89377798 -0.99842851 -3.10026923 -0.93947552 0 0 Z M-6 12 C-4 13 -4 13 -4 13 Z " fill="#E3E3E3" transform="translate(85,27)"/>
<path d="M0 0 C2.31 0 4.62 0 7 0 C6.02471263 1.33617352 5.04466681 2.6688751 4.0625 4 C3.51722656 4.7425 2.97195312 5.485 2.41015625 6.25 C1.94480469 6.8275 1.47945312 7.405 1 8 C0.67 8 0.34 8 0 8 C0 5.36 0 2.72 0 0 Z " fill="#222223" transform="translate(48,40)"/>
<path d="M0 0 C0.33 0 0.66 0 1 0 C1.02689216 1.47906892 1.04634621 2.95827483 1.0625 4.4375 C1.07410156 5.26121094 1.08570313 6.08492188 1.09765625 6.93359375 C1 9 1 9 0 10 C-1.65 10 -3.3 10 -5 10 C-3.35 6.7 -1.7 3.4 0 0 Z " fill="#383839" transform="translate(137,98)"/>
<path d="M0 0 C1.32 0 2.64 0 4 0 C4 3.63 4 7.26 4 11 C0.88776687 6.85035583 0.47996422 4.99162787 0 0 Z " fill="#2D2D2E" transform="translate(31,85)"/>
<path d="M0 0 C0.33 0 0.66 0 1 0 C1 3.3 1 6.6 1 10 C-0.32 10 -1.64 10 -3 10 C-2.25 3.375 -2.25 3.375 0 0 Z " fill="#2C2C2D" transform="translate(34,52)"/>
<path d="M0 0 C3.41158256 1.13719419 4.11854601 2.04342944 6 5 C6 5.66 6 6.32 6 7 C4.02 7 2.04 7 0 7 C0 4.69 0 2.38 0 0 Z " fill="#F7F7F7" transform="translate(48,123)"/>
<path d="M0 0 C0.33 0 0.66 0 1 0 C1.35474551 3.07446111 1.53698855 5.94127109 1 9 C-2 11.5625 -2 11.5625 -5 13 C-3.58192622 8.52761347 -1.88695626 4.28853694 0 0 Z " fill="#E3E3E3" transform="translate(149,98)"/>
<path d="M0 0 C1.65 0 3.3 0 5 0 C5 2.64 5 5.28 5 8 C4.34 8 3.68 8 3 8 C0 2.25 0 2.25 0 0 Z " fill="#F8F8F8" transform="translate(144,40)"/>
<path d="M0 0 C1.32 0 2.64 0 4 0 C4 3.3 4 6.6 4 10 C1.07490914 6.09987886 0.52464905 4.61691161 0 0 Z " fill="#F9F9F9" transform="translate(43,85)"/>
<path d="M0 0 C4.95 0 9.9 0 15 0 C15 0.33 15 0.66 15 1 C12.03 1 9.06 1 6 1 C6 2.65 6 4.3 6 6 C3.97945196 4.35830472 1.97956942 2.69088222 0 1 C0 0.67 0 0.34 0 0 Z " fill="#E9E9E9" transform="translate(132,28)"/>
<path d="M0 0 C0.33 0 0.66 0 1 0 C1 2.97 1 5.94 1 9 C-0.32 9 -1.64 9 -3 9 C-2.5020163 5.26512223 -2.12508244 3.18762365 0 0 Z " fill="#FAFAFA" transform="translate(46,53)"/>
<path d="M0 0 C0 1.98 0 3.96 0 6 C-1.98 6 -3.96 6 -6 6 C-3.4 0 -3.4 0 0 0 Z " fill="#FAFAFA" transform="translate(137,124)"/>
<path d="M0 0 C2.50298434 2.93828597 3.46930939 5.17902761 4 9 C2.68 8.67 1.36 8.34 0 8 C0 5.36 0 2.72 0 0 Z " fill="#303031" transform="translate(47,98)"/>
<path d="M0 0 C0.99 0 1.98 0 3 0 C2.25 7.75 2.25 7.75 0 10 C0 6.7 0 3.4 0 0 Z " fill="#242425" transform="translate(150,85)"/>
<path d="M0 0 C0.99 0 1.98 0 3 0 C2.25 7.75 2.25 7.75 0 10 C0 6.7 0 3.4 0 0 Z " fill="#FBFBFB" transform="translate(138,85)"/>
<path d="M0 0 C2.09749995 2.35968744 2.96905704 3.54616994 3.1875 6.75 C3.0946875 7.86375 3.0946875 7.86375 3 9 C2.01 9 1.02 9 0 9 C0 6.03 0 3.06 0 0 Z M-2 9 C0 10 0 10 0 10 Z " fill="#ECECEC" transform="translate(137,53)"/>
<path d="M0 0 C2.475 0.99 2.475 0.99 5 2 C5 2.33 5 2.66 5 3 C3.35 3 1.7 3 0 3 C0 6.3 0 9.6 0 13 C-2 11 -2 11 -2.01171875 8.90625 C-1.90472656 8.1121875 -1.79773438 7.318125 -1.6875 6.5 C-1.58824219 5.7059375 -1.48898438 4.911875 -1.38671875 4.09375 C-1 2 -1 2 0 0 Z " fill="#3D3D3E" transform="translate(127,26)"/>
<path d="M0 0 C0.33 0 0.66 0 1 0 C1 2.97 1 5.94 1 9 C3.97 9 6.94 9 10 9 C10 9.33 10 9.66 10 10 C8.37675914 10.22162329 6.751279 10.42689803 5.125 10.625 C4.22007813 10.74101562 3.31515625 10.85703125 2.3828125 10.9765625 C1.59648438 10.98429688 0.81015625 10.99203125 0 11 C-0.66 10.34 -1.32 9.68 -2 9 C-1.34 9 -0.68 9 0 9 C0 6.03 0 3.06 0 0 Z " fill="#3E3E3F" transform="translate(103,166)"/>
<path d="M0 0 C0.33 0 0.66 0 1 0 C1 2.97 1 5.94 1 9 C3.97 9 6.94 9 10 9 C10 9.33 10 9.66 10 10 C8.37675914 10.22162329 6.751279 10.42689803 5.125 10.625 C4.22007813 10.74101562 3.31515625 10.85703125 2.3828125 10.9765625 C1.59648438 10.98429688 0.81015625 10.99203125 0 11 C-0.66 10.34 -1.32 9.68 -2 9 C-1.34 9 -0.68 9 0 9 C0 6.03 0 3.06 0 0 Z " fill="#3E3E3F" transform="translate(69,166)"/>
<path d="M0 0 C1.9375 0.8125 1.9375 0.8125 4 2 C4.33 2.99 4.66 3.98 5 5 C3.35 5 1.7 5 0 5 C0 3.35 0 1.7 0 0 Z " fill="#F9F9F9" transform="translate(59,136)"/>
<path d="M0 0 C0.66 0.99 1.32 1.98 2 3 C-2.39436211 3.85743651 -6.52572076 4.08948558 -11 4 C-11.33 3.34 -11.66 2.68 -12 2 C-10.56359829 1.80426392 -9.12580496 1.61872184 -7.6875 1.4375 C-6.88699219 1.33308594 -6.08648437 1.22867188 -5.26171875 1.12109375 C-3 1 -3 1 0 2 C0 1.34 0 0.68 0 0 Z " fill="#49494A" transform="translate(51,105)"/>
<path d="M0 0 C0.33 0 0.66 0 1 0 C1 1.98 1 3.96 1 6 C-0.32 6.33 -1.64 6.66 -3 7 C-2.38722388 4.03824877 -1.74627478 2.61941217 0 0 Z " fill="#333334" transform="translate(69,56)"/>
<path d="M0 0 C0.33 0 0.66 0 1 0 C1 2.97 1 5.94 1 9 C1.99 9.33 2.98 9.66 4 10 C2.125 10.625 2.125 10.625 0 11 C-0.66 10.34 -1.32 9.68 -2 9 C-1.34 9 -0.68 9 0 9 C0 6.03 0 3.06 0 0 Z " fill="#424243" transform="translate(137,166)"/>
<path d="M0 0 C0.33 0 0.66 0 1 0 C1 2.97 1 5.94 1 9 C0.67 9 0.34 9 0 9 C0 6.03 0 3.06 0 0 Z M-3 9 C-2.01 9 -1.02 9 0 9 C-0.33 10.32 -0.66 11.64 -1 13 C-1.66 11.68 -2.32 10.36 -3 9 Z " fill="#3A3A3B" transform="translate(69,75)"/>
<path d="M0 0 C1.32 0 2.64 0 4 0 C2.25 4.875 2.25 4.875 0 6 C0 4.02 0 2.04 0 0 Z " fill="#FDFDFD" transform="translate(127,108)"/>
<path d="M0 0 C1.32 0 2.64 0 4 0 C4 1.98 4 3.96 4 6 C2.62437146 4.71034824 1.29233607 3.37310707 0 2 C0 1.34 0 0.68 0 0 Z " fill="#FAFAFA" transform="translate(54,108)"/>
<path d="M0 0 C2.02054804 1.64169528 4.02043058 3.30911778 6 5 C6 5.33 6 5.66 6 6 C4.35 6 2.7 6 1 6 C0.67 4.02 0.34 2.04 0 0 Z " fill="#DADADA" transform="translate(69,90)"/>
</svg>
