<svg width="11" height="37" viewBox="0 0 11 37" fill="none" xmlns="http://www.w3.org/2000/svg">
<path d="M10.108 32.6956C10.108 33.9742 9.67866 34.9776 8.82 35.7056C7.952 36.4336 6.69666 36.7976 5.054 36.7976C4.23266 36.7976 3.50933 36.7042 2.884 36.5176C2.25866 36.3309 1.73133 36.0602 1.302 35.7056C0.872664 35.3509 0.550664 34.9216 0.335998 34.4176C0.111998 33.9042 -2.31831e-06 33.3302 -2.34605e-06 32.6956C-2.38318e-06 31.8462 0.186664 31.1369 0.559998 30.5676C0.933331 29.9889 1.484 29.5362 2.212 29.2096L2.94 30.5396C2.47333 30.7076 2.10466 30.9689 1.834 31.3236C1.554 31.6689 1.414 32.1262 1.414 32.6956C1.414 33.4516 1.67066 34.0442 2.184 34.4736C2.69733 34.9029 3.40666 35.1176 4.312 35.1176L5.796 35.1176C6.70133 35.1176 7.41066 34.9029 7.924 34.4736C8.43733 34.0442 8.694 33.4516 8.694 32.6956C8.694 32.1076 8.54466 31.6316 8.246 31.2676C7.938 30.8942 7.546 30.6189 7.07 30.4416L7.84 29.1676C8.54933 29.4942 9.10466 29.9516 9.506 30.5396C9.90733 31.1276 10.108 31.8462 10.108 32.6956ZM10.108 24.7465C10.108 25.2505 10.0193 25.7125 9.842 26.1325C9.66466 26.5432 9.41266 26.8932 9.086 27.1825C8.75 27.4719 8.34866 27.6959 7.882 27.8545C7.406 28.0132 6.87866 28.0925 6.3 28.0925C5.72133 28.0925 5.19866 28.0132 4.732 27.8545C4.256 27.6959 3.85466 27.4719 3.528 27.1825C3.192 26.8932 2.93533 26.5432 2.758 26.1325C2.58066 25.7125 2.492 25.2505 2.492 24.7465C2.492 24.2425 2.58066 23.7852 2.758 23.3745C2.93533 22.9545 3.192 22.5999 3.528 22.3105C3.85466 22.0212 4.256 21.7972 4.732 21.6385C5.19866 21.4799 5.72133 21.4005 6.3 21.4005C6.87866 21.4005 7.406 21.4799 7.882 21.6385C8.34866 21.7972 8.75 22.0212 9.086 22.3105C9.41266 22.5999 9.66466 22.9545 9.842 23.3745C10.0193 23.7852 10.108 24.2425 10.108 24.7465ZM8.848 24.7465C8.848 24.2239 8.68933 23.8039 8.372 23.4865C8.04533 23.1692 7.56 23.0105 6.916 23.0105L5.684 23.0105C5.04 23.0105 4.55933 23.1692 4.242 23.4865C3.91533 23.8039 3.752 24.2239 3.752 24.7465C3.752 25.2692 3.91533 25.6892 4.242 26.0065C4.55933 26.3239 5.04 26.4825 5.684 26.4825L6.916 26.4825C7.56 26.4825 8.04533 26.3239 8.372 26.0065C8.68933 25.6892 8.848 25.2692 8.848 24.7465ZM8.736 15.2902L8.736 15.3462C8.91333 15.4115 9.086 15.5002 9.254 15.6122C9.422 15.7148 9.57133 15.8502 9.702 16.0182C9.82333 16.1768 9.92133 16.3728 9.996 16.6062C10.0707 16.8302 10.108 17.0915 10.108 17.3902C10.108 18.1462 9.86533 18.7342 9.38 19.1542C8.89466 19.5648 8.19933 19.7702 7.294 19.7702L2.66 19.7702L2.66 18.2442L7.098 18.2442C8.22733 18.2442 8.792 17.7775 8.792 16.8442C8.792 16.6482 8.76866 16.4568 8.722 16.2702C8.666 16.0835 8.58666 15.9202 8.484 15.7802C8.38133 15.6308 8.25066 15.5142 8.092 15.4302C7.93333 15.3368 7.74666 15.2902 7.532 15.2902L2.66 15.2902L2.66 13.7642L9.94 13.7642L9.94 15.2902L8.736 15.2902ZM9.94 11.5791L2.66 11.5791L2.66 10.0531L3.864 10.0531L3.864 9.98309C3.472 9.82442 3.14533 9.58642 2.884 9.26909C2.62266 8.94242 2.492 8.49909 2.492 7.93909C2.492 7.19242 2.73933 6.61376 3.234 6.20309C3.71933 5.78309 4.41466 5.57309 5.32 5.57309L9.94 5.57309L9.94 7.09909L5.516 7.09909C4.37733 7.09909 3.808 7.55642 3.808 8.47109C3.808 8.66709 3.836 8.86309 3.892 9.05909C3.93866 9.24576 4.01333 9.41376 4.116 9.56309C4.21866 9.71242 4.34933 9.83376 4.508 9.92709C4.66666 10.0111 4.85333 10.0531 5.068 10.0531L9.94 10.0531L9.94 11.5791ZM9.94 1.44199C9.94 1.97399 9.80466 2.37533 9.534 2.64599C9.254 2.91666 8.862 3.05199 8.358 3.05199L3.906 3.05199L3.906 4.186L2.66 4.186L2.66 3.57C2.66 3.318 2.604 3.14533 2.492 3.05199C2.38 2.94933 2.198 2.89799 1.946 2.898L0.671996 2.898L0.671996 1.526L2.66 1.526L2.66 -5.16543e-06L3.906 -5.21989e-06L3.906 1.52599L8.694 1.52599L8.694 0.111995L9.94 0.111995L9.94 1.44199Z" fill="#384250"/>
</svg>
