<svg width="20" height="20" viewBox="0 0 20 20" fill="none" xmlns="http://www.w3.org/2000/svg">
<g clip-path="url(#clip0_1_976)">
<path d="M15.8 0.625H4.2C3.25236 0.626652 2.344 1.00383 1.67392 1.67392C1.00383 2.344 0.626652 3.25236 0.625 4.2V15.8C0.626652 16.7476 1.00383 17.656 1.67392 18.3261C2.344 18.9962 3.25236 19.3733 4.2 19.375H15.8C16.7476 19.3733 17.656 18.9962 18.3261 18.3261C18.9962 17.656 19.3733 16.7476 19.375 15.8V4.2C19.3733 3.25236 18.9962 2.344 18.3261 1.67392C17.656 1.00383 16.7476 0.626652 15.8 0.625ZM18.125 15.8C18.1234 16.4161 17.8779 17.0065 17.4422 17.4422C17.0065 17.8779 16.4161 18.1234 15.8 18.125H4.2C3.58388 18.1234 2.99346 17.8779 2.5578 17.4422C2.12213 17.0065 1.87665 16.4161 1.875 15.8V4.2C1.87665 3.58388 2.12213 2.99346 2.5578 2.5578C2.99346 2.12213 3.58388 1.87665 4.2 1.875H15.8C16.4161 1.87665 17.0065 2.12213 17.4422 2.5578C17.8779 2.99346 18.1234 3.58388 18.125 4.2V15.8Z" fill="white"/>
<path d="M15.625 11.15C15.4592 11.15 15.3003 11.2158 15.1831 11.3331C15.0658 11.4503 15 11.6092 15 11.775V14.1187L5.88125 5H8.225C8.39076 5 8.54973 4.93415 8.66694 4.81694C8.78415 4.69973 8.85 4.54076 8.85 4.375C8.85 4.20924 8.78415 4.05027 8.66694 3.93306C8.54973 3.81585 8.39076 3.75 8.225 3.75H4.18125C4.06688 3.75 3.95719 3.79544 3.87631 3.87631C3.79544 3.95719 3.75 4.06688 3.75 4.18125V8.225C3.75 8.39076 3.81585 8.54973 3.93306 8.66694C4.05027 8.78415 4.20924 8.85 4.375 8.85C4.54076 8.85 4.69973 8.78415 4.81694 8.66694C4.93415 8.54973 5 8.39076 5 8.225V5.88125L14.1187 15H11.775C11.6092 15 11.4503 15.0658 11.3331 15.1831C11.2158 15.3003 11.15 15.4592 11.15 15.625C11.15 15.7908 11.2158 15.9497 11.3331 16.0669C11.4503 16.1842 11.6092 16.25 11.775 16.25H15.8187C15.9331 16.25 16.0428 16.2046 16.1237 16.1237C16.2046 16.0428 16.25 15.9331 16.25 15.8187V11.775C16.25 11.6092 16.1842 11.4503 16.0669 11.3331C15.9497 11.2158 15.7908 11.15 15.625 11.15Z" fill="white"/>
</g>
<defs>
<clipPath id="clip0_1_976">
<rect width="20" height="20" fill="white"/>
</clipPath>
</defs>
</svg>
