<?xml version="1.0" encoding="UTF-8"?>
<svg version="1.1" xmlns="http://www.w3.org/2000/svg" width="60" height="38">
<path d="M0 0 C19.8 0 39.6 0 60 0 C60 12.54 60 25.08 60 38 C40.2 38 20.4 38 0 38 C0 25.46 0 12.92 0 0 Z " fill="#FEFEFE" transform="translate(0,0)"/>
<path d="M0 0 C-1.60045088 4.1611723 -4.38806468 7.43536099 -8 10 C-11.5625 10.6875 -11.5625 10.6875 -15 10 C-16.68662458 8.35353315 -18.35511706 6.68816933 -20 5 C-22.57589864 4.68098409 -22.57589864 4.68098409 -25 6 C-27.79245093 8.45817955 -27.79245093 8.45817955 -30 11 C-29.01 11.33 -28.02 11.66 -27 12 C-27 12.66 -27 13.32 -27 14 C-30.375 14.125 -30.375 14.125 -34 14 C-36 12 -36 12 -36.125 8.875 C-36.08375 7.92625 -36.0425 6.9775 -36 6 C-35.01 5.67 -34.02 5.34 -33 5 C-32.67 6.32 -32.34 7.64 -32 9 C-31.56429688 8.4946875 -31.12859375 7.989375 -30.6796875 7.46875 C-25.85470085 2.20512821 -25.85470085 2.20512821 -21.875 1.25 C-18.14339318 2.22346265 -16.68823042 4.31176958 -14 7 C-11.46285686 7.39491898 -11.46285686 7.39491898 -9 6 C-7.37096622 4.49881444 -5.88425588 2.94813176 -4.4296875 1.27734375 C-3 0 -3 0 0 0 Z " fill="#AB4035" transform="translate(47,11)"/>
<path d="M0 0 C-1.38188453 3.21043882 -2.92421903 5.04936365 -5.625 7.25 C-6.57246094 8.03117187 -6.57246094 8.03117187 -7.5390625 8.828125 C-8.02117188 9.21484375 -8.50328125 9.6015625 -9 10 C-10.32 9.34 -11.64 8.68 -13 8 C-11.9171875 7.4121875 -11.9171875 7.4121875 -10.8125 6.8125 C-7.86335212 5.05976018 -7.86335212 5.05976018 -5.375 2.3125 C-3 0 -3 0 0 0 Z " fill="#BB645B" transform="translate(47,11)"/>
<path d="M0 0 C4.88812032 0.41898174 6.70407414 2.5350523 10 6 C12.16620544 7.29519995 12.16620544 7.29519995 14 8 C10.63283568 8.58925376 8.64845995 8.45322469 5.8203125 6.4765625 C3.79758423 4.7129738 1.84318318 2.95078017 0 1 C0 0.67 0 0.34 0 0 Z " fill="#AA3C31" transform="translate(24,13)"/>
<path d="M0 0 C0.66 0 1.32 0 2 0 C2.33 2.31 2.66 4.62 3 7 C1.68 7 0.36 7 -1 7 C-1.04254356 5.00045254 -1.04080783 2.99958364 -1 1 C-0.67 0.67 -0.34 0.34 0 0 Z " fill="#BE6C64" transform="translate(12,16)"/>
</svg>
