<svg width="12" height="31" viewBox="0 0 12 31" fill="none" xmlns="http://www.w3.org/2000/svg">
<path d="M6.01483 6.08923C4.72606 6.08923 3.48034 6.65564 2.50543 7.68488C1.53052 8.71413 0.891551 10.1375 0.705346 11.6946L0.0142674 17.4743C-0.0139334 17.7102 -0.000223403 17.9507 0.0544667 18.1795C0.109157 18.4083 0.203545 18.6201 0.331217 18.8004C0.458889 18.9807 0.616852 19.1254 0.794374 19.2245C0.971896 19.3236 1.16481 19.3749 1.36002 19.3749H10.64C10.8345 19.3749 11.0267 19.324 11.2037 19.2256C11.3807 19.1271 11.5384 18.9835 11.666 18.8043C11.7937 18.6251 11.8884 18.4146 11.9437 18.1869C11.9991 17.9592 12.0138 17.7197 11.9869 17.4845L11.3291 11.7348C11.15 10.1693 10.5135 8.73567 9.53683 7.69815C8.56021 6.66063 7.30933 6.08921 6.01483 6.08923Z" fill="#47B2B0" fill-opacity="0.4"/>
<path d="M6.00002 6.08929C7.37708 6.08929 8.49342 4.72615 8.49342 3.04464C8.49342 1.36313 7.37708 0 6.00002 0C4.62295 0 3.50662 1.36313 3.50662 3.04464C3.50662 4.72615 4.62295 6.08929 6.00002 6.08929Z" fill="#47B2B0" fill-opacity="0.4"/>
<path d="M3.01701 11.625L1.69324 22.6964H10.3068L9.04014 11.625" fill="#47B2B0" fill-opacity="0.4"/>
<path d="M7.41835 31H4.58141C4.35136 31 4.1299 30.8933 3.9619 30.7014C3.7939 30.5095 3.69193 30.2468 3.67663 29.9665L3.27982 22.6964H8.71995L8.32305 29.9665C8.30775 30.2467 8.20579 30.5094 8.0378 30.7013C7.86982 30.8932 7.64839 31 7.41835 31Z" fill="#47B2B0" fill-opacity="0.4"/>
<path d="M5.54654 31V24.9107C5.54654 24.7639 5.5943 24.6231 5.67932 24.5193C5.76434 24.4155 5.87965 24.3572 5.99988 24.3572C6.12012 24.3572 6.23543 24.4155 6.32045 24.5193C6.40547 24.6231 6.45323 24.7639 6.45323 24.9107V31H5.54654Z" fill="#47B2B0" fill-opacity="0.4"/>
<path d="M9.94235 11.5485C9.93567 11.4749 9.91698 11.4037 9.88738 11.3392C9.85778 11.2746 9.81788 11.2179 9.77002 11.1725C9.72217 11.127 9.66734 11.0938 9.60878 11.0747C9.55022 11.0556 9.48912 11.051 9.42909 11.0612C9.36906 11.0715 9.31131 11.0963 9.25928 11.1342C9.20724 11.1722 9.16197 11.2225 9.12613 11.2822C9.0903 11.3419 9.06463 11.4098 9.05065 11.4818C9.03667 11.5538 9.03465 11.6285 9.04473 11.7015L9.9224 19.375H10.8378L9.94235 11.5485Z" fill="#47B2B0" fill-opacity="0.4"/>
<path d="M2.62941 11.0769C2.51049 11.0563 2.38973 11.094 2.29342 11.1816C2.1971 11.2692 2.13304 11.3998 2.11519 11.5448L1.17871 19.375H2.09519L3.0124 11.7049C3.02975 11.5597 2.99916 11.4119 2.92735 11.2941C2.85554 11.1764 2.74838 11.0983 2.62941 11.0769Z" fill="#47B2B0" fill-opacity="0.4"/>
</svg>
