<svg width="20" height="20" viewBox="0 0 20 20" fill="none" xmlns="http://www.w3.org/2000/svg">
<path d="M9.99105 1.66656C9.88147 1.66764 9.77317 1.69039 9.67236 1.73356C9.57155 1.77672 9.48021 1.83944 9.40356 1.9181C9.3269 1.99677 9.26644 2.08988 9.22564 2.19204C9.18484 2.2942 9.1645 2.4034 9.16577 2.51346V9.21185C9.16584 9.43404 9.25375 9.64714 9.4102 9.80423C9.56664 9.96132 9.77879 10.0495 10 10.0495C10.2212 10.0495 10.4334 9.96132 10.5898 9.80423C10.7463 9.64714 10.8342 9.43404 10.8342 9.21185V2.51346C10.8355 2.40188 10.8146 2.29115 10.7727 2.18781C10.7308 2.08447 10.6687 1.99057 10.5902 1.91166C10.5116 1.83276 10.4181 1.77046 10.3153 1.72837C10.2124 1.68627 10.1021 1.66526 9.99105 1.66656ZM14.8532 3.34565C14.826 3.34487 14.7989 3.34541 14.7718 3.34729C14.607 3.36134 14.4501 3.42432 14.3211 3.52818C14.192 3.63204 14.0967 3.77208 14.0471 3.93053C13.9975 4.08899 13.996 4.25872 14.0428 4.41805C14.0895 4.57737 14.1823 4.71913 14.3095 4.8253C15.7532 6.05667 16.6665 7.88943 16.6665 9.94754C16.6665 13.6637 13.6956 16.659 10.0041 16.659C6.31255 16.659 3.33512 13.6637 3.33512 9.94754C3.33513 7.90134 4.23685 6.08102 5.66608 4.84981C5.74935 4.77842 5.8178 4.69123 5.86753 4.59327C5.91726 4.49531 5.94729 4.38848 5.95591 4.27887C5.96452 4.16925 5.95156 4.05905 5.91776 3.95447C5.88396 3.84988 5.82998 3.75301 5.7589 3.66938C5.68782 3.58575 5.60104 3.51699 5.50351 3.46705C5.40598 3.41711 5.29961 3.38689 5.19047 3.37824C5.08134 3.36958 4.97158 3.38263 4.86745 3.41659C4.76333 3.45054 4.66688 3.50475 4.58362 3.57614C2.7995 5.11309 1.66668 7.40398 1.66667 9.94754C1.66666 14.567 5.41024 18.3332 10.0041 18.3332C14.5979 18.3332 18.3333 14.567 18.3333 9.94754C18.3333 7.38915 17.1893 5.08883 15.3871 3.55163C15.2389 3.42187 15.0498 3.34892 14.8532 3.34565Z" fill="white"/>
</svg>
