<svg width="12" height="31" viewBox="0 0 12 31" fill="none" xmlns="http://www.w3.org/2000/svg">
<path d="M6 6.08929C7.65685 6.08929 9 4.72615 9 3.04464C9 1.36313 7.65685 0 6 0C4.34315 0 3 1.36313 3 3.04464C3 4.72615 4.34315 6.08929 6 6.08929Z" fill="#2A7F7D" fill-opacity="0.6"/>
<path d="M0 12.1786V17.7143C0 18.0079 0.114935 18.2895 0.31952 18.4972C0.524105 18.7048 0.801582 18.8214 1.09091 18.8214H2.72727V29.3393C2.72727 29.7797 2.89967 30.2022 3.20655 30.5136C3.51343 30.825 3.92965 31 4.36364 31H7.63636C8.07035 31 8.48657 30.825 8.79345 30.5136C9.10033 30.2022 9.27273 29.7797 9.27273 29.3393V18.8214H10.9091C11.1984 18.8214 11.4759 18.7048 11.6805 18.4972C11.8851 18.2895 12 18.0079 12 17.7143V12.1786C12 10.5636 11.3679 9.01477 10.2426 7.8728C9.11742 6.73084 7.5913 6.08929 6 6.08929C4.4087 6.08929 2.88258 6.73084 1.75736 7.8728C0.632141 9.01477 0 10.5636 0 12.1786Z" fill="#2A7F7D" fill-opacity="0.6"/>
<path d="M10.3636 18.8214V12.1786C10.3636 12.0318 10.3061 11.891 10.2039 11.7871C10.1016 11.6833 9.96282 11.625 9.81816 11.625C9.6735 11.625 9.53476 11.6833 9.43246 11.7871C9.33017 11.891 9.27271 12.0318 9.27271 12.1786V18.8214H10.3636Z" fill="#2A7F7D" fill-opacity="0.6"/>
<path d="M2.72726 18.8214V12.1786C2.72726 12.0318 2.66979 11.891 2.5675 11.7871C2.46521 11.6833 2.32647 11.625 2.18181 11.625C2.03714 11.625 1.89841 11.6833 1.79611 11.7871C1.69382 11.891 1.63635 12.0318 1.63635 12.1786V18.8214H2.72726Z" fill="#2A7F7D" fill-opacity="0.6"/>
<path d="M6.54544 31V21.0357C6.54544 20.8889 6.48797 20.7481 6.38568 20.6443C6.28339 20.5404 6.14465 20.4821 5.99998 20.4821C5.85532 20.4821 5.71658 20.5404 5.61429 20.6443C5.512 20.7481 5.45453 20.8889 5.45453 21.0357V31H6.54544Z" fill="#2A7F7D" fill-opacity="0.6"/>
</svg>
